<svg xmlns="http://www.w3.org/2000/svg" viewBox="0 0 495.77 463.73" width="500"><defs><style>.cls-1{fill:#e6e6fa;}.cls-12,.cls-14,.cls-2,.cls-5{fill:#fff;}.cls-10,.cls-11,.cls-12,.cls-13,.cls-2,.cls-3,.cls-4,.cls-5,.cls-6,.cls-7,.cls-8,.cls-9{stroke:#000;stroke-miterlimit:10;}.cls-2,.cls-4{stroke-width:2px;}.cls-6{fill:#b3b3b3;}.cls-7{fill:#f2f2f2;}.cls-11,.cls-8{fill:none;}.cls-10,.cls-8{stroke-width:0.75px;}.cls-10,.cls-9{fill:#d8ffc6;}.cls-12{stroke-width:0.5px;}.cls-13{fill:#ffd0ff;}</style></defs><g id="Layer_2" data-name="Layer 2"><circle class="cls-1" cx="231.86" cy="231.86" r="231.86"/><line class="cls-2" x1="17.88" y1="460.83" x2="495.77" y2="460.83"/><circle class="cls-3" cx="74.71" cy="430.05" r="30.78"/><line class="cls-4" x1="78.68" y1="174.95" x2="78.68" y2="404.14"/><line class="cls-4" x1="100.62" y1="245.66" x2="84.77" y2="406.58"/><line class="cls-4" x1="50.03" y1="218.23" x2="70.14" y2="411.46"/><rect class="cls-4" x="50.29" y="399.27" width="48.84" height="5.17"/><rect class="cls-5" x="372.42" y="284.34" width="72.46" height="96.11"/><rect class="cls-5" x="434.67" y="380.45" width="6.22" height="80.38"/><rect class="cls-6" x="428.44" y="380.45" width="6.22" height="80.38"/><rect class="cls-5" x="372.42" y="380.45" width="6.22" height="80.38"/><rect class="cls-6" x="366.19" y="380.45" width="6.22" height="80.38"/><rect class="cls-6" x="316.39" y="284.34" width="56.02" height="96.11"/><rect class="cls-7" x="321.87" y="320.19" width="47.43" height="23.41"/><rect class="cls-7" x="321.87" y="289.55" width="47.43" height="20.92"/><rect class="cls-7" x="320.69" y="350.32" width="47.43" height="24.15"/><rect class="cls-5" x="381.14" y="278.16" width="71.41" height="6.18"/><rect class="cls-6" x="239.35" y="278.16" width="140.77" height="6.18"/><rect class="cls-4" x="337.19" y="298.67" width="14.43" height="2.66"/><rect class="cls-4" x="337.19" y="329.06" width="14.43" height="2.66"/><rect class="cls-4" x="337.19" y="359.74" width="14.43" height="2.66"/><rect class="cls-8" x="239.35" y="22.61" width="192.21" height="255.4"/><line class="cls-8" x1="335.45" y1="22.61" x2="337.19" y2="278.02"/><line class="cls-8" x1="239.35" y1="89.19" x2="431.55" y2="89.76"/><line class="cls-8" x1="239.15" y1="156.35" x2="431.35" y2="156.93"/><line class="cls-8" x1="238.95" y1="220.35" x2="431.16" y2="220.92"/><path class="cls-9" d="M196.86,201.67c-1.23-1.91,1.78-5.63,2.54-6.57a15.4,15.4,0,0,1,7.21-4.87c2-.7,5.09-1.8,6.35-.42,1.07,1.16.26,3.5,0,4.23-.8,2.3-2.42,3.58-4.66,5.3-2,1.55-3.55,2.73-5.93,3.18C201.66,202.65,197.93,203.35,196.86,201.67Z" transform="translate(-117.89 -27.83)"/><path class="cls-10" d="M207.66,193.2l-10.8,8.47" transform="translate(-117.89 -27.83)"/><path class="cls-9" d="M203.05,218.25c-1.22-1.92,1.78-5.64,2.54-6.57a15.44,15.44,0,0,1,7.21-4.88c2-.69,5.09-1.8,6.35-.42,1.08,1.16.26,3.5,0,4.24-.8,2.29-2.42,3.58-4.66,5.29-2,1.56-3.55,2.74-5.93,3.18C207.85,219.23,204.12,219.93,203.05,218.25Z" transform="translate(-117.89 -27.83)"/><path class="cls-10" d="M213.86,209.77q-5.42,4.23-10.81,8.48" transform="translate(-117.89 -27.83)"/><line class="cls-11" x1="85.89" y1="189.94" x2="78.04" y2="197.22"/><path class="cls-9" d="M203.69,252.85c-1.23-1.91,1.78-5.63,2.54-6.57a15.43,15.43,0,0,1,7.2-4.87c2-.7,5.09-1.8,6.36-.42,1.07,1.16.26,3.49,0,4.23-.8,2.3-2.43,3.58-4.66,5.3-2,1.55-3.55,2.73-5.93,3.18C208.49,253.83,204.76,254.53,203.69,252.85Z" transform="translate(-117.89 -27.83)"/><path class="cls-10" d="M214.49,244.38l-10.8,8.47" transform="translate(-117.89 -27.83)"/><line class="cls-11" x1="86.52" y1="224.55" x2="78.68" y2="231.82"/><path class="cls-9" d="M210,294.19c1.48-1.72-1-5.83-1.59-6.86a15.4,15.4,0,0,0-6.44-5.85c-1.85-1-4.78-2.5-6.23-1.32-1.23,1-.75,3.43-.6,4.2.47,2.38,1.9,3.88,3.86,5.9,1.78,1.83,3.13,3.21,5.43,4C205.1,294.48,208.69,295.7,210,294.19Z" transform="translate(-117.89 -27.83)"/><path class="cls-10" d="M200.49,284.27q4.75,5,9.5,9.92" transform="translate(-117.89 -27.83)"/><line class="cls-11" x1="91.45" y1="265.79" x2="98.18" y2="274.1"/><path class="cls-9" d="M203.05,298.29c-1.22-1.91,1.78-5.64,2.54-6.57a15.44,15.44,0,0,1,7.21-4.88c2-.69,5.09-1.8,6.35-.42,1.08,1.16.26,3.5,0,4.24-.8,2.29-2.42,3.58-4.66,5.29-2,1.56-3.55,2.74-5.93,3.18C207.85,299.27,204.12,300,203.05,298.29Z" transform="translate(-117.89 -27.83)"/><path class="cls-10" d="M213.86,289.81l-10.81,8.48" transform="translate(-117.89 -27.83)"/><line class="cls-11" x1="85.89" y1="269.98" x2="78.04" y2="277.26"/><path class="cls-9" d="M196.36,203.17c1.95-1.15.94-5.83.68-7a15.43,15.43,0,0,0-4.24-7.59c-1.45-1.51-3.74-3.9-5.49-3.24-1.48.56-1.8,3-1.9,3.79-.32,2.41.55,4.29,1.78,6.83,1.1,2.29,1.94,4,3.87,5.5C191.63,201.89,194.65,204.19,196.36,203.17Z" transform="translate(-117.89 -27.83)"/><path class="cls-10" d="M190.52,190.74q2.92,6.22,5.84,12.43" transform="translate(-117.89 -27.83)"/><path class="cls-9" d="M207.16,327.64c1.49-1.71-1-5.83-1.58-6.86a15.46,15.46,0,0,0-6.44-5.85c-1.85-1-4.79-2.5-6.24-1.32-1.22,1-.75,3.43-.6,4.2.47,2.38,1.9,3.89,3.87,5.9,1.78,1.83,3.13,3.21,5.42,4C202.27,327.93,205.86,329.15,207.16,327.64Z" transform="translate(-117.89 -27.83)"/><path class="cls-10" d="M197.67,317.72l9.49,9.92" transform="translate(-117.89 -27.83)"/><line class="cls-11" x1="88.62" y1="299.24" x2="95.35" y2="307.55"/><path class="cls-9" d="M201.55,383.63c1.48-1.72-1-5.83-1.59-6.86a15.4,15.4,0,0,0-6.44-5.85c-1.85-1-4.78-2.5-6.23-1.32-1.23,1-.75,3.43-.6,4.2.47,2.38,1.89,3.88,3.86,5.9,1.78,1.82,3.13,3.21,5.43,4C196.66,383.92,200.25,385.14,201.55,383.63Z" transform="translate(-117.89 -27.83)"/><path class="cls-10" d="M192.05,373.71l9.5,9.92" transform="translate(-117.89 -27.83)"/><line class="cls-11" x1="83" y1="355.23" x2="89.73" y2="363.54"/><path class="cls-9" d="M191,225.24c1.48-1.72-1-5.83-1.58-6.86a15.52,15.52,0,0,0-6.44-5.85c-1.86-1-4.79-2.5-6.24-1.32-1.22,1-.75,3.43-.6,4.19.47,2.39,1.9,3.89,3.87,5.91,1.77,1.82,3.13,3.21,5.42,4C186.08,225.53,189.67,226.75,191,225.24Z" transform="translate(-117.89 -27.83)"/><path class="cls-10" d="M181.48,215.32l9.49,9.92" transform="translate(-117.89 -27.83)"/><line class="cls-11" x1="72.43" y1="196.83" x2="79.16" y2="205.15"/><path class="cls-9" d="M191,259.72c1.48-1.72-1-5.83-1.58-6.87A15.55,15.55,0,0,0,183,247c-1.86-1-4.79-2.51-6.24-1.32-1.22,1-.75,3.42-.6,4.19.47,2.39,1.9,3.89,3.87,5.91,1.77,1.82,3.13,3.2,5.42,4C186.08,260,189.67,261.23,191,259.72Z" transform="translate(-117.89 -27.83)"/><path class="cls-10" d="M181.48,249.79l9.49,9.93" transform="translate(-117.89 -27.83)"/><line class="cls-11" x1="72.43" y1="231.31" x2="79.16" y2="239.63"/><path class="cls-9" d="M189.84,293.68c1.48-1.72-1-5.83-1.59-6.86a15.4,15.4,0,0,0-6.44-5.85c-1.85-1-4.78-2.5-6.23-1.32-1.23,1-.75,3.43-.6,4.19.47,2.39,1.9,3.89,3.86,5.91,1.78,1.82,3.13,3.21,5.43,4C185,294,188.54,295.19,189.84,293.68Z" transform="translate(-117.89 -27.83)"/><path class="cls-10" d="M180.34,283.76q4.75,5,9.5,9.92" transform="translate(-117.89 -27.83)"/><line class="cls-11" x1="71.3" y1="265.27" x2="78.03" y2="273.59"/><path class="cls-9" d="M181,297.2c-1.6-1.62.57-5.88,1.12-7a15.43,15.43,0,0,1,6-6.26c1.79-1.09,4.61-2.82,6.13-1.74,1.29.92,1,3.37.88,4.15-.3,2.41-1.63,4-3.46,6.15-1.65,1.94-2.9,3.41-5.14,4.34C185.87,297.16,182.38,298.62,181,297.2Z" transform="translate(-117.89 -27.83)"/><path class="cls-10" d="M189.79,286.66,181,297.2" transform="translate(-117.89 -27.83)"/><line class="cls-11" x1="63.7" y1="268.75" x2="57.54" y2="277.5"/><path class="cls-9" d="M183.48,321.33c-1.61-1.61.53-5.89,1.07-7a15.42,15.42,0,0,1,6-6.31c1.78-1.1,4.59-2.85,6.12-1.78,1.3.91,1,3.36.91,4.14-.29,2.41-1.6,4-3.42,6.18-1.64,1.95-2.88,3.43-5.11,4.37C188.37,321.26,184.89,322.74,183.48,321.33Z" transform="translate(-117.89 -27.83)"/><path class="cls-10" d="M192.21,310.73l-8.73,10.6" transform="translate(-117.89 -27.83)"/><line class="cls-11" x1="66.19" y1="292.88" x2="60.1" y2="301.67"/><path class="cls-9" d="M168.45,245.39c-1.23-1.91,1.78-5.64,2.54-6.57a15.52,15.52,0,0,1,7.21-4.88c2-.69,5.09-1.79,6.35-.42,1.08,1.17.26,3.5,0,4.24-.8,2.29-2.42,3.58-4.66,5.3-2,1.55-3.55,2.73-5.93,3.18C173.25,246.37,169.52,247.07,168.45,245.39Z" transform="translate(-117.89 -27.83)"/><path class="cls-10" d="M179.26,236.91l-10.81,8.48" transform="translate(-117.89 -27.83)"/><path class="cls-9" d="M168,246.89c2-1.16.94-5.84.68-7a15.47,15.47,0,0,0-4.24-7.6c-1.45-1.5-3.74-3.89-5.49-3.23-1.48.56-1.8,3-1.9,3.78-.32,2.41.56,4.29,1.78,6.83,1.11,2.29,1.95,4,3.87,5.51C163.22,245.6,166.24,247.9,168,246.89Z" transform="translate(-117.89 -27.83)"/><path class="cls-10" d="M162.11,234.46q2.92,6.21,5.84,12.43" transform="translate(-117.89 -27.83)"/><path class="cls-9" d="M219.18,272.47c-1.22-1.91,1.79-5.64,2.55-6.57a15.47,15.47,0,0,1,7.2-4.88c2-.69,5.09-1.8,6.36-.42,1.07,1.16.26,3.5,0,4.24-.8,2.29-2.43,3.58-4.66,5.29-2,1.56-3.56,2.74-5.94,3.18C224,273.45,220.26,274.15,219.18,272.47Z" transform="translate(-117.89 -27.83)"/><path class="cls-10" d="M230,264l-10.81,8.48" transform="translate(-117.89 -27.83)"/><path class="cls-9" d="M218.69,274c1.95-1.15.93-5.83.68-7a15.47,15.47,0,0,0-4.25-7.59c-1.44-1.51-3.73-3.89-5.48-3.24-1.49.56-1.81,3-1.91,3.79-.32,2.41.56,4.29,1.78,6.83,1.11,2.29,2,4,3.87,5.5C214,272.68,217,275,218.69,274Z" transform="translate(-117.89 -27.83)"/><path class="cls-10" d="M212.84,261.53,218.69,274" transform="translate(-117.89 -27.83)"/><path class="cls-9" d="M176.67,263.53c-1.59-1.62.58-5.88,1.12-7a15.5,15.5,0,0,1,6-6.26c1.78-1.09,4.6-2.82,6.13-1.74,1.29.92,1,3.37.88,4.15-.31,2.41-1.63,4-3.46,6.15-1.65,1.94-2.91,3.41-5.14,4.34C181.57,263.49,178.07,265,176.67,263.53Z" transform="translate(-117.89 -27.83)"/><path class="cls-10" d="M185.48,253l-8.81,10.54" transform="translate(-117.89 -27.83)"/><line class="cls-11" x1="59.39" y1="235.08" x2="53.23" y2="243.83"/><path class="cls-9" d="M187.72,377.29c-1.59-1.61.58-5.88,1.13-7a15.54,15.54,0,0,1,6-6.27c1.78-1.09,4.61-2.81,6.13-1.73,1.29.92,1,3.37.88,4.14-.31,2.41-1.63,4-3.46,6.16-1.65,1.93-2.91,3.41-5.14,4.34C192.62,377.25,189.12,378.71,187.72,377.29Z" transform="translate(-117.89 -27.83)"/><path class="cls-10" d="M196.53,366.76l-8.81,10.53" transform="translate(-117.89 -27.83)"/><line class="cls-11" x1="70.44" y1="348.84" x2="64.29" y2="357.59"/><path class="cls-9" d="M191,346c1.48-1.72-1-5.83-1.58-6.86a15.52,15.52,0,0,0-6.44-5.85c-1.86-1-4.79-2.5-6.24-1.32-1.22,1-.75,3.43-.6,4.2.47,2.38,1.9,3.88,3.87,5.9,1.77,1.82,3.13,3.21,5.42,4C186.08,346.32,189.67,347.54,191,346Z" transform="translate(-117.89 -27.83)"/><path class="cls-10" d="M181.48,336.11,191,346" transform="translate(-117.89 -27.83)"/><line class="cls-11" x1="72.43" y1="317.63" x2="79.16" y2="325.94"/><path class="cls-9" d="M222.59,289.52c-1.22-1.91,1.79-5.63,2.55-6.56a15.47,15.47,0,0,1,7.2-4.88c2-.69,5.09-1.8,6.36-.42,1.07,1.16.26,3.5,0,4.24-.8,2.29-2.43,3.58-4.66,5.29-2,1.56-3.56,2.74-5.94,3.18C227.39,290.51,223.67,291.2,222.59,289.52Z" transform="translate(-117.89 -27.83)"/><path class="cls-10" d="M233.4,281.05l-10.81,8.47" transform="translate(-117.89 -27.83)"/><line class="cls-11" x1="105.43" y1="261.22" x2="97.59" y2="268.5"/><path class="cls-9" d="M220.79,322.72c-1.22-1.91,1.79-5.63,2.55-6.57a15.43,15.43,0,0,1,7.2-4.87c2-.7,5.09-1.8,6.36-.42,1.07,1.16.26,3.5,0,4.23-.8,2.3-2.43,3.58-4.66,5.3-2,1.55-3.56,2.73-5.94,3.18C225.59,323.7,221.87,324.4,220.79,322.72Z" transform="translate(-117.89 -27.83)"/><path class="cls-10" d="M231.6,314.25l-10.81,8.47" transform="translate(-117.89 -27.83)"/><line class="cls-11" x1="103.63" y1="294.42" x2="95.79" y2="301.69"/><path class="cls-9" d="M216.76,348.89c-1.23-1.91,1.78-5.63,2.54-6.57a15.4,15.4,0,0,1,7.21-4.87c2-.7,5.09-1.8,6.35-.42,1.08,1.16.26,3.5,0,4.24-.8,2.29-2.42,3.57-4.66,5.29-2,1.56-3.55,2.73-5.93,3.18C221.56,349.87,217.83,350.57,216.76,348.89Z" transform="translate(-117.89 -27.83)"/><path class="cls-10" d="M227.57,340.42l-10.81,8.47" transform="translate(-117.89 -27.83)"/><line class="cls-11" x1="99.6" y1="320.59" x2="91.75" y2="327.86"/><path class="cls-9" d="M202.4,401.62c-1.22-1.91,1.78-5.63,2.54-6.57a15.48,15.48,0,0,1,7.21-4.87c2-.7,5.09-1.8,6.35-.42,1.08,1.16.26,3.5,0,4.24-.8,2.29-2.42,3.57-4.66,5.29-2,1.56-3.55,2.73-5.93,3.18C207.2,402.6,203.47,403.3,202.4,401.62Z" transform="translate(-117.89 -27.83)"/><path class="cls-10" d="M213.21,393.15l-10.81,8.47" transform="translate(-117.89 -27.83)"/><line class="cls-11" x1="85.24" y1="373.32" x2="77.39" y2="380.59"/><path class="cls-9" d="M212,402.83c-1.22-1.91,1.79-5.64,2.55-6.57a15.47,15.47,0,0,1,7.2-4.88c2-.69,5.09-1.8,6.36-.42,1.07,1.16.26,3.5,0,4.24-.8,2.29-2.43,3.58-4.66,5.3-2,1.55-3.56,2.73-5.94,3.17C216.79,403.81,213.07,404.51,212,402.83Z" transform="translate(-117.89 -27.83)"/><path class="cls-10" d="M222.8,394.35,212,402.83" transform="translate(-117.89 -27.83)"/><line class="cls-11" x1="94.83" y1="374.52" x2="86.99" y2="381.8"/><path class="cls-9" d="M198.19,413.22c1.48-1.72-1-5.83-1.58-6.86a15.47,15.47,0,0,0-6.45-5.85c-1.85-1-4.78-2.5-6.23-1.32-1.22,1-.75,3.43-.6,4.2.47,2.38,1.9,3.88,3.86,5.9,1.78,1.82,3.13,3.21,5.43,4C193.3,413.51,196.89,414.73,198.19,413.22Z" transform="translate(-117.89 -27.83)"/><path class="cls-10" d="M188.7,403.3l9.49,9.92" transform="translate(-117.89 -27.83)"/><line class="cls-11" x1="79.65" y1="384.81" x2="86.38" y2="393.13"/><path class="cls-9" d="M190.73,387.73c1.48-1.71-1-5.82-1.59-6.86A15.42,15.42,0,0,0,182.7,375c-1.85-1-4.79-2.51-6.23-1.33-1.23,1-.76,3.43-.61,4.2.47,2.38,1.9,3.89,3.87,5.91,1.78,1.82,3.13,3.2,5.42,4C185.83,388,189.42,389.25,190.73,387.73Z" transform="translate(-117.89 -27.83)"/><path class="cls-10" d="M181.23,377.81q4.74,5,9.5,9.92" transform="translate(-117.89 -27.83)"/><line class="cls-11" x1="72.18" y1="359.33" x2="78.91" y2="367.65"/><path class="cls-9" d="M163.63,269.41c1.11-2-2.11-5.52-2.92-6.41a15.46,15.46,0,0,0-7.47-4.45c-2-.58-5.19-1.5-6.37-.05-1,1.22-.06,3.5.24,4.23.94,2.24,2.63,3.43,5,5,2.11,1.43,3.71,2.52,6.11,2.83C158.9,270.67,162.66,271.15,163.63,269.41Z" transform="translate(-117.89 -27.83)"/><path class="cls-10" d="M152.35,261.58l11.28,7.83" transform="translate(-117.89 -27.83)"/><line class="cls-11" x1="44.99" y1="241.15" x2="53.23" y2="247.96"/><path class="cls-9" d="M203.8,362.61c1.48-1.72-1-5.83-1.59-6.86a15.4,15.4,0,0,0-6.44-5.85c-1.85-1-4.78-2.5-6.23-1.32-1.23,1-.75,3.43-.6,4.2.47,2.38,1.89,3.88,3.86,5.9,1.78,1.82,3.13,3.21,5.43,4C198.91,362.9,202.5,364.12,203.8,362.61Z" transform="translate(-117.89 -27.83)"/><path class="cls-10" d="M194.3,352.69l9.5,9.92" transform="translate(-117.89 -27.83)"/><line class="cls-11" x1="85.25" y1="334.21" x2="91.98" y2="342.52"/><path class="cls-9" d="M203.69,332.38c-1.23-1.91,1.78-5.63,2.54-6.56a15.47,15.47,0,0,1,7.2-4.88c2-.69,5.09-1.8,6.36-.42,1.07,1.16.26,3.5,0,4.24-.8,2.29-2.43,3.58-4.66,5.29-2,1.56-3.55,2.74-5.93,3.18C208.49,333.37,204.76,334.06,203.69,332.38Z" transform="translate(-117.89 -27.83)"/><path class="cls-10" d="M214.49,323.91l-10.8,8.47" transform="translate(-117.89 -27.83)"/><line class="cls-11" x1="86.52" y1="304.08" x2="78.68" y2="311.36"/><path class="cls-9" d="M166.68,304.59c1.12-2-2.1-5.52-2.91-6.41a15.43,15.43,0,0,0-7.48-4.45c-2-.58-5.19-1.51-6.37-.06-1,1.23-.06,3.51.24,4.23.94,2.25,2.64,3.44,5,5,2.1,1.43,3.7,2.52,6.1,2.83C162,305.84,165.71,306.33,166.68,304.59Z" transform="translate(-117.89 -27.83)"/><path class="cls-10" d="M155.4,296.75l11.28,7.84" transform="translate(-117.89 -27.83)"/><line class="cls-11" x1="48.04" y1="276.32" x2="56.29" y2="283.13"/><path class="cls-9" d="M171.54,338.2c1.11-2-2.11-5.52-2.92-6.41a15.46,15.46,0,0,0-7.47-4.45c-2-.58-5.19-1.5-6.37-.06-1,1.23-.06,3.51.24,4.24.94,2.24,2.63,3.43,5,5,2.11,1.43,3.71,2.52,6.11,2.83C166.81,339.46,170.57,339.94,171.54,338.2Z" transform="translate(-117.89 -27.83)"/><path class="cls-10" d="M160.26,330.36l11.28,7.84" transform="translate(-117.89 -27.83)"/><line class="cls-11" x1="52.9" y1="309.94" x2="61.15" y2="316.75"/><path class="cls-9" d="M174,359.55c1.11-2-2.11-5.52-2.92-6.42a15.43,15.43,0,0,0-7.48-4.44c-2-.59-5.18-1.51-6.37-.06-1,1.22-.05,3.51.25,4.23.93,2.25,2.63,3.43,5,5,2.1,1.43,3.7,2.52,6.1,2.83C169.25,360.8,173,361.29,174,359.55Z" transform="translate(-117.89 -27.83)"/><path class="cls-10" d="M162.71,351.71,174,359.55" transform="translate(-117.89 -27.83)"/><line class="cls-11" x1="55.34" y1="331.28" x2="63.59" y2="338.09"/><path class="cls-9" d="M176.63,389.81c1.12-2-2.1-5.52-2.91-6.41a15.52,15.52,0,0,0-7.48-4.45c-2-.58-5.19-1.5-6.37-.05-1,1.22-.06,3.51.24,4.23.94,2.24,2.64,3.43,5,5,2.1,1.43,3.7,2.52,6.1,2.83C171.9,391.07,175.66,391.55,176.63,389.81Z" transform="translate(-117.89 -27.83)"/><path class="cls-10" d="M165.35,382l11.28,7.83" transform="translate(-117.89 -27.83)"/><line class="cls-11" x1="57.99" y1="361.55" x2="66.24" y2="368.36"/><path class="cls-9" d="M178.09,408.64c1.11-2-2.11-5.52-2.92-6.41a15.46,15.46,0,0,0-7.47-4.45c-2-.58-5.19-1.5-6.37,0-1,1.22-.06,3.5.24,4.23.93,2.24,2.63,3.43,5,5,2.11,1.43,3.71,2.52,6.11,2.83C173.35,409.9,177.11,410.38,178.09,408.64Z" transform="translate(-117.89 -27.83)"/><path class="cls-10" d="M166.81,400.8l11.28,7.84" transform="translate(-117.89 -27.83)"/><line class="cls-11" x1="59.44" y1="380.38" x2="67.69" y2="387.19"/><path class="cls-9" d="M518.62,283.32c-1.57-1.61-3.34-.72-4.92-2.65a6.76,6.76,0,0,1-1.14-5.11c.1-.71.52-3.75,2.46-4.36,1.39-.43,2.84.6,3.6,1.14,2.27,1.61,2.94,3.89,3.22,3.78.44-.16-2.26-5.25-1.14-10.79.31-1.52.86-4.21,3-5.3,2.66-1.33,6.68.27,7.77,2.65.78,1.71-.49,2.61.38,5.87a10.19,10.19,0,0,1,.71,3.2,23.6,23.6,0,0,1-.52,3.05c.18.08.87-1.77,2.46-3.6,1.14-1.31,2.35-2.7,3.79-2.65,2.54.09,4,4.63,4.16,5.11.3,1,1.18,3.8-.19,6.25-1,1.87-2.37,1.66-4.54,3.6-3,2.62-2.19,4.47-4.36,6.63-3.5,3.49-10.79,3.91-13.06,1.13C518.46,289,520.93,285.68,518.62,283.32Z" transform="translate(-117.89 -27.83)"/><rect class="cls-4" x="397.24" y="258.5" width="23.53" height="19.51"/><polygon class="cls-6" points="128.14 354.95 112.88 460.83 137.72 357.59 128.14 354.95"/><polygon class="cls-6" points="175.08 359.74 192.98 460.83 184.03 360.65 175.08 359.74"/><polygon class="cls-6" points="150.82 359.38 158.16 460.83 160.72 359.91 150.82 359.38"/><polygon class="cls-6" points="210.86 359.33 226.51 460.83 220.44 359.33 210.86 359.33"/><path class="cls-5" d="M245.38,270.83c-7.36,2.11-13.88,10.32-17.22,19.52-1.61,4.43-1.86,11.43-2.3,25.25a233.08,233.08,0,0,0,0,23.53c.36,5.9,1,11,2.3,21.24,1.13,8.95,1.71,13.45,2.29,14.92,4.32,10.84,16.41,15.52,25.26,18.94,14.56,5.63,26.89,5.74,39.65,5.73,14.62,0,24.11,0,35.53-4.58,17.44-7,31.45-21.4,29.27-25.83-.62-1.27-3.67-1.61-9.75-2.29-5-.56-7.07-.33-14.92-.58-3.27-.1-7.22-.23-11.83-.63-5.58-.47-10.29-.88-13.44-1.74-9.16-2.51-14.25-11.47-18.9-19.65-6.28-11-4.06-13.19-12.94-33.34-4-9-4.08-7.83-7.21-15.42-4.22-10.23-4.79-14.23-9.46-19.16-1.85-1.95-6-6.22-11.94-6.47A14.69,14.69,0,0,0,245.38,270.83Z" transform="translate(-117.89 -27.83)"/><line class="cls-12" x1="321.3" y1="32.64" x2="299.14" y2="53.94"/><line class="cls-12" x1="294.5" y1="59.61" x2="276.46" y2="77.48"/><line class="cls-12" x1="299.14" y1="43.97" x2="278.35" y2="64.94"/><line class="cls-12" x1="274.57" y1="68.54" x2="268.21" y2="74.73"/><line class="cls-12" x1="425.15" y1="93.25" x2="402.98" y2="114.55"/><line class="cls-12" x1="398.34" y1="120.22" x2="380.3" y2="138.09"/><line class="cls-12" x1="402.98" y1="104.59" x2="382.19" y2="125.55"/><line class="cls-12" x1="378.41" y1="129.15" x2="372.06" y2="135.34"/><line class="cls-12" x1="421.12" y1="163.86" x2="398.96" y2="185.16"/><line class="cls-12" x1="394.32" y1="190.83" x2="376.28" y2="208.7"/><line class="cls-12" x1="398.96" y1="175.19" x2="378.17" y2="196.16"/><line class="cls-12" x1="374.39" y1="199.76" x2="368.03" y2="205.95"/><polygon class="cls-6" points="309.73 211.28 385.3 211.28 368.03 272.46 292.86 272.46 309.73 211.28"/><polygon class="cls-5" points="261.01 272.46 261.01 275.61 366.97 275.61 368.03 272.46 261.01 272.46"/><polygon class="cls-5" points="314.52 217.27 301.69 268.26 361.61 268.26 375.24 217.27 314.52 217.27"/><path class="cls-5" d="M398.4,147.92c-1-2.48-4.1-10.67-.41-17.91.79-1.56,2.08-4.09,4.51-4.64,3.63-.84,7.35,3.3,8.88,5.74,1.89,3,1.95,5.77,2.05,10.39.11,4.82-1,6.29-1.64,7-.9.9-2.13,1.43-2.05,1.64s1.51-.26,3.28-.68c2.74-.65,4.85-1.15,7-.69.55.12,3.87.85,4.78,3.28,1.05,2.82-1.77,6.16-3.83,7.66a11.12,11.12,0,0,1-7.38,1.91c-4.47-.27-7.46-2.88-9-4.23A22,22,0,0,1,398.4,147.92Z" transform="translate(-117.89 -27.83)"/><path class="cls-13" d="M403,133.18c-2,.67-2.59,3.93-2.05,6.15.66,2.74,3.36,5.32,5.33,4.79s3.2-4.66,1.91-7.52C407.3,134.6,404.94,132.54,403,133.18Z" transform="translate(-117.89 -27.83)"/><path class="cls-13" d="M412.18,154.7c-.23.92.88,1.88,1.12,2.1a3.93,3.93,0,0,0,4.44.61c.75-.45,1.69-1.47,1.45-2.44-.28-1.15-2-1.47-2.59-1.58C414.88,153.06,412.48,153.49,412.18,154.7Z" transform="translate(-117.89 -27.83)"/><path class="cls-5" d="M395.22,148.53c-1.83-1.94-7.84-8.32-16-8.14-1.75,0-4.59.1-6.15,2.05-2.33,2.92-.21,8.06,1.32,10.5,1.88,3,4.36,4.26,8.47,6.35,4.3,2.19,6.09,1.87,7,1.55,1.2-.42,2.21-1.31,2.36-1.13s-.89,1.24-2,2.65c-1.76,2.19-3.13,3.87-3.64,6-.13.55-.92,3.86.88,5.73,2.08,2.17,6.31,1.08,8.56-.12a11.16,11.16,0,0,0,4.93-5.82c1.69-4.15.64-8,.1-10A22.33,22.33,0,0,0,395.22,148.53Z" transform="translate(-117.89 -27.83)"/><path class="cls-13" d="M379.93,146.29c1.47-1.52,4.66-.63,6.44.82,2.18,1.79,3.33,5.34,2,6.88s-5.58.87-7.6-1.54C379.34,150.77,378.52,147.75,379.93,146.29Z" transform="translate(-117.89 -27.83)"/><path class="cls-13" d="M395.34,163.89c.93.19,1.32,1.61,1.41,1.92a3.94,3.94,0,0,1-1.38,4.27c-.73.47-2.05.88-2.83.24s-.46-2.43-.3-3C392.7,165.62,394.13,163.63,395.34,163.89Z" transform="translate(-117.89 -27.83)"/><path class="cls-14" d="M395.68,146.16l9.44,15.32" transform="translate(-117.89 -27.83)"/><path d="M395.68,146.16a15.69,15.69,0,0,1,3.7,3,24,24,0,0,1,4.72,7.65,15.57,15.57,0,0,1,1,4.66,15.21,15.21,0,0,1-3.7-3,22.39,22.39,0,0,1-2.72-3.6,22.81,22.81,0,0,1-2-4.06A15.75,15.75,0,0,1,395.68,146.16Z" transform="translate(-117.89 -27.83)"/><path class="cls-3" d="M394.59,144.43a1.35,1.35,0,0,0,0,1.92,1.41,1.41,0,0,0,2.05-.41C396.81,145.28,395.23,144.07,394.59,144.43Z" transform="translate(-117.89 -27.83)"/><path class="cls-11" d="M394.73,134a14.66,14.66,0,0,0-.82,3.69,15.33,15.33,0,0,0,1.77,8.47" transform="translate(-117.89 -27.83)"/><path class="cls-11" d="M385.43,138.37a28,28,0,0,1,10.25,7.79" transform="translate(-117.89 -27.83)"/></g><g id="Layer_3" data-name="Layer 3"><path class="cls-5" d="M335,326.27c1.32-2.61,6.38-2.73,44.64,5.33,15,3.17,21,4.61,25.85,10.34,5.81,6.85,6.19,15.29,6.27,17.75.44,14.18-9.35,15.83-21.41,42.81-4.2,9.4-6.8,17.17-14.1,28.2-3.34,5-4,5.27-6.79,9.92-8,13.44-6.54,18.69-12.53,24s-16.06,7.54-19.32,4.17.33-11.92,4.7-22.45c2.12-5.1,3.12-6.06,6.79-13.57,0,0,4-8.23,7.83-17.76,7.92-19.75,13.52-33.74,9.4-49.08-1.53-5.7-3.63-13.5-10.44-18.79-6-4.63-12-4.64-17.23-11.49C336.92,333.44,333.57,329,335,326.27Z" transform="translate(-117.89 -27.83)"/><path class="cls-5" d="M374.64,411.38c2.37,9.12,5.39,9.68,11.49,27.15,2.72,7.79,4.07,11.68,4.7,15.14,1.6,8.88.44,13.26,4.07,16.85a11.28,11.28,0,0,0,10,3c3.84-.81,7.56-4,8.35-7.83,1.23-5.95-5.64-8.16-7.31-18.8-.19-1.19,0-.28-.52-8.35-.37-5.31-.58-8.37-1-12s-.88-5.69-1.57-9.4c-2.94-15.89-2.25-15.52-3.13-18.27-3.47-10.75-15.48-20.64-21.41-18.28C372,383.08,371.62,399.72,374.64,411.38Z" transform="translate(-117.89 -27.83)"/><path class="cls-3" d="M368,370.13c1.36,8.21-2.22,10.79-1.7,17.37.24,3.1.95,1.08,6.17,13.84.39,1,2.68,6.57,4.89,13,1.2,3.47,1.79,5.2,1.92,5.81.55,2.63.45,4.12,1.41,4.63,1.19.63,3-.76,4.15-1.53,7.84-5.14,16.29-1,18.32-5.23.1-.21,0-.09,0-4.58s.07-5.23,0-8.51c-.05-2.4-.14-4.12-.18-4.79-.13-2.34-.29-4.1-.34-4.62-.23-2.48-.51-4.59-.57-5-.83-5.06-11.27-5.72-20.94-12.43-8-5.52-11.91-12.68-13.33-11.76C367.2,366.75,367.67,368.13,368,370.13Z" transform="translate(-117.89 -27.83)"/><path class="cls-3" d="M334.67,324.68c1.18-.43,1.81-.29,5.67-.21,4.18.08,4.68-.06,7.2,0,9.69.2,26.83,2.61,26.83,2.61,3.91.52,13,1.75,24.86,3.93,9,1.65,15.76,3.15,20.29,8.29,1.07,1.21,3.53,4.08,3.49,7.85,0,1.38-.35,2.09-2,5.89-3.49,8.23-2.7,6.76-4.58,10.9-1,2.3-2.12,4.69-3.7,7.86a102,102,0,0,1-5.24,9.59c-1.65,2.63-2,2.78-3.71,5.46-2.51,3.85-3.48,6-5.45,9.59-2.89,5.29-3.64,5.85-12,19.2-2.24,3.57-3.36,5.36-3.48,5.59-1.3,2.47-1.34,3.13-2.2,3.57-.43.22-1.66.69-8.5-3.06-2.62-1.43-2.92-1.76-5.45-3.05a52,52,0,0,0-5.06-2.3c-3.24-1.24-4.57-.63-5.2-1.63-.83-1.32.63-3.38,2-5.88.66-1.25,1.89-5.12,4.36-12.87,2.56-8.05,3.56-10,2.62-12.44-.37-.92-1.77-3.88-1.91-4.17-1.26-2.66-1.41-2.78-1.94-4-2-4.55-1-5.33-2.28-6.63-.63-.63-1.48-1.06-8.89-1.53-3.66-.24-4.83-.26-4.83-.26-13.05-.25-10.26-.54-20.29-.66-8.7-.09-11.5.43-12.43-1.3-.76-1.44.47-3,5-10.47,4.79-7.85,7.21-11.83,8.07-14.4,1.17-3.5,1.25-5.53,3.27-9.38C331.73,326,333.77,325,334.67,324.68Z" transform="translate(-117.89 -27.83)"/><path class="cls-5" d="M383.47,193.51c-.49-.15-1.06,1.13-2.5,2.83-1.71,2-5,5-6.32,4.32-1-.54-.94-3.35.16-5.32.53-1,1.22-1.55,5-3.66,5.74-3.22,6.43-3.11,6.82-2.83.93.65-.08,2.06.67,5.66.52,2.53,1.32,3.28.83,4.49-.6,1.47-2.64,2.54-3.66,2C382.6,200,384.52,193.82,383.47,193.51Z" transform="translate(-117.89 -27.83)"/><path class="cls-5" d="M341.36,221c4.68-3.62,7.78-5.79,9.65-7.16,5.38-3.94,3.28-3.27,11-9.48,2.3-1.86,3.56-2.78,4.16-4.66,1-3-1-4.7.16-7.49s4.11-3.83,5-4.17a10.16,10.16,0,0,1,5.66-.49c1.11.24,1.35.54,2.16.49,1.72-.08,2.68-1.5,4.16-3,2.24-2.26,6.29-5.31,8-4.33a2.19,2.19,0,0,1,.83,2c-.05.73-.49,1.57-3.16,3.33-2.09,1.38-2.84,1.53-5.33,3a20.17,20.17,0,0,0-3.82,2.67c-1.28,1.18-2.65,2.5-2.5,4.16a3.4,3.4,0,0,0,.83,1.83c1.5,1.73,4.51,1.8,6.66,1.16,2.32-.68,2.15-1.75,5-2.66,1.29-.41,3.27-1,4.83,0,.1.07,1.47,1,1.33,2s-2.05,1.52-4.66,2.49c-4.16,1.56-3.38,2.08-7.49,3.67-2.59,1-2.62.68-8,2.49a16.23,16.23,0,0,0-8.82,5.66c-2.38,2.51-4.15,4.55-6,6.66-4,4.59-4.09,4.71-4.66,5.33-3.48,3.76-3.58,3.37-5.33,5.49-3.54,4.29-3.77,6.66-5.33,6.66s-1.53-2-5.16-6.16c-2.24-2.56-3.26-3-3.32-4.33C337.11,224.32,338.86,222.9,341.36,221Z" transform="translate(-117.89 -27.83)"/><path class="cls-5" d="M404.21,289.65c.45,1.21,1.35,2.32,1.71,2.2s.16-1.78.12-2a9.49,9.49,0,0,0-.41-1.59c-.28-1-.32-.91-.8-2.37-.25-.76-.25-.8-.34-.88-.92-.81-3.9,1.21-4.35,1.52-.84.59-4,2.77-3.46,4.2a1.9,1.9,0,0,0,1.91,1c.84-.11,1.15-.81,3.05-2.77,1.28-1.33,1.64-1.53,1.9-1.43S403.74,288.4,404.21,289.65Z" transform="translate(-117.89 -27.83)"/><path class="cls-13" d="M340.7,221.48c1,.05,1.4,1.05,2.88,2.54a15.25,15.25,0,0,0,4.13,3,11.5,11.5,0,0,0,4.64,1.5c.68,0,1.35,0,1.47.3.21.53-1.4,1.63-1.89,2-2.74,1.94-3.17,3.63-7,8.26-2.72,3.31-2.79,2.8-7.72,8.09-3.67,3.93-4.53,5.18-8.36,9.52-6.72,7.63-7.88,11.7-10.6,11.42-1.62-.17-2.64-1.67-4.33-4.15-2.09-3.06-1.86-4.51-4-10.94-1.91-5.62-2.94-7-2-8.52s2.45-1.05,6-2.73a36.27,36.27,0,0,0,5.61-3.7c4.48-3.28,4.26-3.52,9.16-7.25,4.62-3.5,6.07-4.24,7.38-5.88a11.05,11.05,0,0,1,2.33-2.18C339.44,221.86,340,221.45,340.7,221.48Z" transform="translate(-117.89 -27.83)"/><path class="cls-13" d="M317.72,233.44c.22.56,0,.45.45,6.81,0,0,.17,2.63.6,7.81.89,10.83,2.43,18.75,2.79,27.86.93,24.1.69,33.43.69,33.43-.06,2.35-.27,9.34,3.48,11.49,2,1.13,4.46.63,5.58,2.44.8,1.31.39,3,0,4.24-.67,2-1.22,3.42-1.37,3.7-1.76,3.22.49,0-5,10.8-2.14,4.22-3.35,6.4-7.09,13.51-.32.6-1.21,2.29-2.32,4.42l-1.15,2.23c-1,2.28-1.06,2.57-1.47,2.86-.94.67-2.77.09-6-2a40.06,40.06,0,0,1-7.84-6.49,61.09,61.09,0,0,1-8.2-12.64c-2.8-5.42-4.68-10.3-8.45-20.08-4.82-12.51-4.79-12.61-5.88-15.21-4.4-10.51-6.49-11.43-10.1-20.47-.53-1.33-1-2.35-1.43-3.23-.63-1.28-1.13-2.15-1.69-3.13-3.1-5.39-3.62-6.48-5-8a8.26,8.26,0,0,0-2.93-2.2c-1-.4-1.15-.23-1.53-.53-1.3-1-.12-3.68.35-8s-.33-4.69.33-8.43a24.57,24.57,0,0,1,1.65-5.46A30.68,30.68,0,0,1,267.57,236c2.94-1.93,6.37-3.49,12.56-5C294,227.74,315,226.5,317.72,233.44Z" transform="translate(-117.89 -27.83)"/><path class="cls-5" d="M397.54,281.46c-.07-.29.35-.62.66-.86a6.59,6.59,0,0,1,3.82-1.14c2.43-.14,2.39.22,4.48.09s3-.57,3.52,0c.67.73.38,2.58.38,2.58h0l.11,2.28.15,3.42c.16,1.69.34,2,.12,2.68-.27.91-1,1.92-1.52,1.81-.68-.15-.29-2.22-1.24-5.43-.59-2-1-3.24-2.1-4-.62-.42-2-.54-4.76-.76C398.88,281.94,397.64,281.92,397.54,281.46Z" transform="translate(-117.89 -27.83)"/><path class="cls-5" d="M401.73,283.27c-.15-.64,2-2.06,4.19-2.19,1-.06.84.19,2.67.28a17.43,17.43,0,0,0,3.81-.09c1.27-.2,1.83-.47,2.48-.1a2.3,2.3,0,0,1,.95,1.24,3.17,3.17,0,0,1,0,1.53,11.07,11.07,0,0,0,.19,3.26,15.19,15.19,0,0,0,.56,2.36c.34,1,.67,1.57.49,1.71s-.79-.26-1.14-.57a3.83,3.83,0,0,1-.95-1.33,4.45,4.45,0,0,0-1.53-2.77c-1.06-.78-1.8-.3-3.91-.85s-2.21-1.34-4.47-1.91C403,283.32,401.83,283.69,401.73,283.27Z" transform="translate(-117.89 -27.83)"/><path class="cls-5" d="M306.09,313c-.15.66,1.61,3.64,5.12,9.59,1.14,1.93,2,3.29,3.64,4,.8.33,1.8.5,5.13,0a46.61,46.61,0,0,0,6.28-1.32c4.33-1.33,7.44-2.61,11.24-4.13,2.73-1.1,6.44-2.59,10.08-4,5.75-2.18,5.65-2,10.59-3.8,3.92-1.48,9.46-3.57,16.2-6.78,5.12-2.45,5.55-3,8.76-4.14,2.9-1,5.5-1.67,9.26-3.14.67-.26,1.8-.72,3.8-1.49,2.83-1.09,2.75-1,3-1.15,2.35-1.43,1.69-3.37,4.13-6a10.38,10.38,0,0,1,4.46-2.81,12.53,12.53,0,0,1,4.47-.34,66.66,66.66,0,0,1,7.1.67,9,9,0,0,0,1.36.09,2.53,2.53,0,0,0,1.45-.26c.29-.18.66-.53.67-.78,0-1.1-7.25-.35-14.39-3.68-2.54-1.19-5-2.21-9.92-4.3-.81-.35-2.42-1-3.8-.33a4.5,4.5,0,0,0-2,2.81c-2.3,6.36-9.84,10-10.75,10.41a30.32,30.32,0,0,1-6,1.66c-5.28,1.2-7.59,1.1-13.23,2-2.61.41-4.77.88-9.09,1.82-8.23,1.8-14.25,3.45-26.28,6.78C313.49,308.28,306.7,310.29,306.09,313Z" transform="translate(-117.89 -27.83)"/><path class="cls-5" d="M285.12,217.61c-.2-1.31.37-1.7,1.58-5.32s1.57-6.32,2.22-11.57c2.17-17.32-.44-24.9,5-33.3.75-1.15,1.77-2.43,3.8-5,5.06-6.34,7.58-9.52,10.23-10.47,3.18-1.14,3,.7,11.18,0,3-.25,4.61-.64,7.14,0a11.23,11.23,0,0,1,5.7,3.1c2.5,2.69,2.85,6.39,3.1,9,.35,3.71-.36,5.59,1.19,7.37a7.83,7.83,0,0,0,2.85,1.9c2.48,1,4,.37,4.76,1.43s-.14,3.13-.24,3.33c-1.19,2.38-3.64,2.24-4.28,4.28-.25.78-.05,1.32.24,2.62a53.39,53.39,0,0,1,1,9c.29,5.17-.37,6.22-.72,6.66-.74,1-1.77,1.38-3.8,2.15a21.3,21.3,0,0,1-8.33,1.66c-3.81-.07-4.94-1.23-6.42-.24-1,.64-1.18,1.5-2.14,5-2,7.36-2.56,8.69-3.09,9.75a17.81,17.81,0,0,1-3.81,5.23C304.74,230.66,286.12,224.38,285.12,217.61Z" transform="translate(-117.89 -27.83)"/><path class="cls-13" d="M318.05,224.58h0s-5.67-5.06-8.48-7.26a46.52,46.52,0,0,0-21.8-8.89c-5.92-.77-10.38-.13-15.55.61-7.49,1.07-11.23,1.6-14.13,4-3.41,2.86-4.43,8.17-6.46,18.77-2.19,11.43-1,13.82.2,15.14,1.92,2.07,5.4,3.07,7.88,2s2.94-3.84,4.24-6.26c3.86-7.22,14.26-8.86,20.79-9.89a65.12,65.12,0,0,1,23.82,1.21c5.39,1.44,9.29,3.36,10.9,1.62C321.76,233.19,318.05,224.58,318.05,224.58Z" transform="translate(-117.89 -27.83)"/><path class="cls-11" d="M266.79,226.5l4.06-.6" transform="translate(-117.89 -27.83)"/><path class="cls-11" d="M276.4,223.64a27.2,27.2,0,0,1,8.11-1.95,28.32,28.32,0,0,1,8.85.75,38.05,38.05,0,0,1,8.26,3c3.8,1.77,5.05,2.95,10.21,6,3,1.77,5.6,3.18,7.63,4.24" transform="translate(-117.89 -27.83)"/><path class="cls-13" d="M300.52,237.63c2.15-.7,5.46-1.38,8.57,0,3.3,1.47,4.85,4.57,8,14.25a217.44,217.44,0,0,1,7.41,26.46c.69,3.33,1.31,6.72,2.67,12.28s.46,9.2,2.84,10.56c1.28.73,2.84.53,5.67.16,3.9-.52,5-1.68,6.43-.91,1,.54.81,1.31,2.39,4.84,1.09,2.44,1.33,2.4,3.15,6.15,1.07,2.19,2.24,3,1.89,4.09-.22.7-.84,1.08-2,1.65a61.48,61.48,0,0,1-8.12,3.18c-1.46.51-.73.33-4.3,1.72s-5.13,2-7.27,2.68a34.88,34.88,0,0,1-7.91,1.84c-2.63.24-4,.48-5.13,0-1.5-.62-2.34-1.75-4.75-5.85-2.8-4.78-3.43-6.06-3.43-6.06-7.06-14.39-6.75-13.43-7.93-16.21-1.74-4.08-.85-2.45-4.67-12.18-1.88-4.78-3.15-8.09-5.68-14.71-1.88-4.9-2.53-6.65-2.94-9.43a26.28,26.28,0,0,1,.1-9.54,25.21,25.21,0,0,1,5.68-11.36" transform="translate(-117.89 -27.83)"/><path class="cls-13" d="M366,445.19c3.24.15.57,9.6,5.36,19.06a27.35,27.35,0,0,0,10.83,11.66c2.91,1.65,4.82,1.43,7.53,3.1,1.18.72,1.51,1.07,1.48,1.54-.11,2.05-7.06,6.25-13.06,6.25-7.6,0-7.78-5.94-18-8.94-3.46-1-6.56-1.21-12.78-1.58-10.67-.65-15.34.64-16.63-2.15-.8-1.71.59-3,2.93-9.88,3-8.85,3.14-13.91,4.63-14.23,1.08-.24,1,2.43,3.37,4.81,3.33,3.35,9.9,4.55,13.66,1.81,2.28-1.66,1.74-3.46,5.36-7.38C362.84,447,364.56,445.12,366,445.19Z" transform="translate(-117.89 -27.83)"/><path class="cls-5" d="M381.84,482.88c1.66-.26,2,0,3.23-.35s1.11-.59,2.4-.88,2-.13,2.76-.75c.51-.4.55-.73.89-.79.55-.1,1,.68,1.45,1.56a10.44,10.44,0,0,1,.53,1.2,5.15,5.15,0,0,1,.4,1.29c0,1.48-5.88,3.62-6.14,3.72-5.5,2-8.25,3-10.57,2.85-3-.18-5.58-1.88-10.68-5.28-3.34-2.23-3.53-2.81-5.54-3.51-.64-.23-1.49-.47-9.28-.67-5.9-.15-8.85-.23-10.44-.2A26.39,26.39,0,0,1,338,481c-.84,0-1.16-.11-2.58-.25-2.15-.2-2-.11-2.41-.2-.85-.16-2.94-.55-3.59-2.35a3.81,3.81,0,0,1,.37-3.29,5.35,5.35,0,0,1,3.2-2.05,8.87,8.87,0,0,1,6.3.78c5,2.24,7.77-1,15.16-.15,8.41,1,15.85,6.51,16.77,7.19,0,0,4.85,3.6,8.46,2.67A17.47,17.47,0,0,1,381.84,482.88Z" transform="translate(-117.89 -27.83)"/><path class="cls-13" d="M408.26,450c2.31-1.77,7.09,5,16.94,7.52a32.36,32.36,0,0,0,15.48.31c3.13-.75,4.27-1.95,7.28-2.58,1.3-.27,1.77-.26,2.07,0,1.35,1.21-.44,7.5-4.51,10.92-5.15,4.33-9.42,1.12-18.44,5.27-3.06,1.4-5.3,3.06-9.79,6.39-7.7,5.72-10,9.09-12.79,8.28-1.73-.5-1.68-2-4.89-7.15-4.13-6.62-7.56-9.51-6.78-10.54.58-.74,2.38.78,5.65.76,4.59,0,9.89-3.12,10.54-6.78.39-2.21-1.24-2.91-1.51-7.15C407.35,452.79,407.22,450.78,408.26,450Z" transform="translate(-117.89 -27.83)"/><path class="cls-5" d="M445.28,461.9c1-1.09,1.3-1.14,2-2s.34-.95,1-1.86,1.25-1.2,1.35-2c.06-.51-.14-.72,0-.95s1.14-.17,2.07.05a9,9,0,0,1,1.2.36,5.15,5.15,0,0,1,1.17.49c1,.84-1.47,5.35-1.58,5.56-2.35,4.24-3.52,6.35-5.19,7.6-2.18,1.62-5.1,2.13-10.94,3.15-3.82.66-4.35.45-6.21,1.2-.59.24-1.33.59-6.76,4.92-4.12,3.27-6.18,4.91-7.23,5.84-.36.31-1,.88-1.95,1.57-.61.45-.87.6-1.93,1.33-1.6,1.12-1.41,1.05-1.78,1.27a5,5,0,0,1-4.08.74,3.41,3.41,0,0,1-2-2,3.64,3.64,0,0,1,.75-3A8.7,8.7,0,0,1,410,481c5-1.61,4.57-5,10.19-8.71,6.41-4.24,15.3-5.42,16.41-5.56,0,0,5.8-.77,7.6-3.34A13.48,13.48,0,0,1,445.28,461.9Z" transform="translate(-117.89 -27.83)"/></g><g id="Layer_4" data-name="Layer 4"><path class="cls-3" d="M307.48,183.6c1.42-.16,2.37-1.61,3.8-3.81,2.13-3.27,2.12-5.23,3.09-7.37,2.41-5.3,7.29-3.9,12.61-9.51,1.12-1.18,6.11-6.46,5.23-12.37-1-6.79-9.32-10.35-10.7-10.94-11.91-5.11-29.21.08-39.47,10.79,0,0-13.93,14.55-15,48.41-.16,5.11-1.43,10.14-1.67,15.24a12.57,12.57,0,0,1-1.43,6.19c-2.16,3.73-5.75,3.94-5.71,5.71.05,2.05,4.88,4.61,9.05,3.65s6-4.93,6.72-6.31a11.75,11.75,0,0,0,1.35-5.67c-.12,0,0,4.5-2.85,8.09-3.76,4.78-9.39,4.55-9.28,6,.14,1.61,7.84,3.94,12.37.47a10.28,10.28,0,0,0,3-4.19,21.77,21.77,0,0,0,1.79-10.56,15.14,15.14,0,0,1-.48,10.47c-2.93,6.67-11,7.29-10.66,9.59.19,1.16,2.24,1.25,14.59,3.27a16.84,16.84,0,0,0,7.44-.22c1.44-.39,8.85-2.41,11.94-8.83,1.34-2.78,1.2-6.93,1.19-15.23,0-7.61-.73-7.77,0-11.4.84-4.37,2.53-7.56,1-9.29-1-1.07-2-.29-4.28-1.43-2.78-1.38-4.11-4-5-5.71-1.14-2.22-2.26-4.41-1.67-7.13.43-2,1.93-5.05,4.05-5.23C302,175.92,303.94,184,307.48,183.6Z" transform="translate(-117.89 -27.83)"/><path class="cls-3" d="M331.5,166.47c-.64.22,0,4.28,0,4.28s.88,2.45,1.43,2.39.8-1.76.52-3.34C333.12,168,331.94,166.33,331.5,166.47Z" transform="translate(-117.89 -27.83)"/><path class="cls-11" d="M328,185.82a9.15,9.15,0,0,0,1.56,1.41,7.79,7.79,0,0,0,4.74,1.7,7,7,0,0,0,3.12-.81" transform="translate(-117.89 -27.83)"/><path class="cls-11" d="M334.56,161.57a8.32,8.32,0,0,1,1.78-.29,7.73,7.73,0,0,1,5,1.26,7.15,7.15,0,0,1,3,5.34c.16,3.88-3.19,6.06-3.33,6.15" transform="translate(-117.89 -27.83)"/><line class="cls-11" x1="192.94" y1="149.54" x2="226.39" y2="136.12"/><path class="cls-3" d="M303.66,196.74c2,.65.6,5.78,2.71,18.33,2.6,15.43,6.38,17.54,8.18,18,1.41.33,3.05-.06,3.17.42.18.68-3,2.19-5.5,3-1.87.61-7,2.26-10.89.94-7.39-2.49-10.46-15.36-8.42-25.07C294.74,203.58,301,195.87,303.66,196.74Z" transform="translate(-117.89 -27.83)"/></g></svg>