<svg id="Layer_6" data-name="Layer 6" xmlns="http://www.w3.org/2000/svg" viewBox="0 0 543.2 368.05"><defs><style>.cls-1,.cls-3{fill:#e6e6fa;}.cls-1,.cls-2{stroke:#000;}.cls-1,.cls-2,.cls-3{stroke-miterlimit:10;}.cls-2{fill:none;}.cls-3{stroke:#050505;}.cls-4{fill:#d8ffc6;}</style></defs><path class="cls-1" d="M117.25,307.18l22.36-11.11c13-6.45,26.66-11.68,39-19.35,13.45-8.4,20.77-15.48,25.46-12.65,2.05,1.23,2.47,3.67,3.32,7.73,3.9,18.78,3.82,10.07,6.63,26.54,4.67,27.28.57,25.89,4.31,36.58.59,1.7,1.78,4.83.67,8.19-1.68,5-7.4,7.16-13.27,9.39-25.84,9.86-21.32,9.43-35.37,13.82-13.46,4.21-12.15,2.9-18.65,5.5-5.84,2.33-7.76,3.73-10.1,2.79-4.29-1.72-3.54-8.71-6.63-20.45-1.71-6.51-2.36-6-8.29-21C124.28,327.14,120.93,318.28,117.25,307.18Z" transform="translate(-116.64 -7.36)"/><path class="cls-2" d="M117.25,307.18a71.11,71.11,0,0,0,12.16,7.74c9.85,4.93,13.91,4,25.43,8.29,14.69,5.42,16.29,9.9,21,8.29C180.2,330,180,325.8,188,304.42c.93-2.49,4.49-11.43,11.61-29.3,1.87-4.69,3.41-8.54,4.42-11.05" transform="translate(-116.64 -7.36)"/><path class="cls-2" d="M141.57,374.61a64,64,0,0,1,1.11-17.68A66.7,66.7,0,0,1,159.42,325" transform="translate(-116.64 -7.36)"/><path class="cls-2" d="M219,343.11c-4.31-5.28-9.26-10.88-14.93-16.58a225.64,225.64,0,0,0-18.13-16.39" transform="translate(-116.64 -7.36)"/><path class="cls-1" d="M197.4,194.42h0s14.32-19.08,24.32-32.06c44.47-57.69,51.21-56.48,58.52-71.1,1.21-2.42,5.13-10.65,8.91-10.15,2.22.29,3.47,3.46,3.87,4.42,2.27,5.38,12.57,13.9,33.17,31,20.38,16.87,30.56,25.3,35.66,27,2.36.79,9.27,2.9,9.66,6.7.32,3.06-3.73,5.78-5,6.63-11.7,8.06-19.44,20.82-30.4,29.85-15.38,12.68-25.65,24.8-36.48,37.59s-25.19,23.1-34.83,37c-1.33,1.93-5.15,7.6-10.5,7.74-4.73.13-8.4-4.13-10.5-6.63-11.77-14-20.21-26.19-24.87-32.61-5.44-7.5-14.91-19.86-18.24-27.64Z" transform="translate(-116.64 -7.36)"/><path class="cls-2" d="M197.4,194.42a70.86,70.86,0,0,0,15.87,1.84,78.6,78.6,0,0,0,11.94-1c19.55-2.59,19.91-1.34,34.1-3.73,15.31-2.58,12.69-3.67,17.74-3.69a7.57,7.57,0,0,0,4.91-1.29c3-2.34,2.63-7.26,2.49-10-.4-7.38.47-14.79,0-22.15-.78-12.22,1.41-10.08,1.74-30.12.19-11.49-.5-14,0-25.39.32-7.42.93-13.5,1.4-17.57" transform="translate(-116.64 -7.36)"/><path class="cls-2" d="M254.33,269c-.05-10.06.09-18.63.25-25.24.42-16.63,1.24-29.58,1.74-37.34.39-6,.77-11,1.05-14.61" transform="translate(-116.64 -7.36)"/><path class="cls-2" d="M370.8,148.42a184.82,184.82,0,0,0-23.88.8c-12.31,1.2-18.5,3.05-32.61,5.23-6.63,1-16.44,2.34-28.62,3.23" transform="translate(-116.64 -7.36)"/><path class="cls-1" d="M373.25,194.76a10.05,10.05,0,0,0,5-.26l45.65-2.44,36.83-2c17.36-.93,35.71,3.06,52.09-2.79,2.56-.91,7.43-2.84,11.08-.59,5,3.09,4.46,12,4.22,18.78-.6,16.48,1.41,33,1.53,49.45.24,33.51.61,35,1.59,37.25.57,1.3,2.17,4.69.71,6.83-2,3-8.17,1.08-18.78-.38-9.77-1.35-19.68-1.27-29.52-1.92,0,0-9-.59-19.16-1.15-29.85-1.63-33.83-.33-58.27-1.91-30.45-2-26.54-4.13-31.73-3.23-1.23.21-4.66.88-6.6-1-2.38-2.3-1.07-7.07-.38-10.35,1.63-7.75.17-15.85.38-23.77.46-16.87-.91-14.22-.38-29.51.67-19.46,2.78-20.81,1.53-26.83-.1-.48-1-4.66.39-5.37C370.21,193.2,371.16,194.28,373.25,194.76Z" transform="translate(-116.64 -7.36)"/><path class="cls-2" d="M369.42,193.61a64.65,64.65,0,0,0,11.88,12.27c4.69,3.7,7.21,4.61,13.41,8.43,3.72,2.29,4.44,3,19.94,14.57,19.83,14.85,17.82,13.12,19.55,14.56,12.06,10.05,13.73,13.91,18.78,13.8,2.83-.06,5.86-1.36,15.71-12.26,8.85-9.8,10.2-12.94,17.64-21.85,5.66-6.79,11.31-12.45,22.61-23.77,5.56-5.57,10.27-10.11,13.6-13.28" transform="translate(-116.64 -7.36)"/><path class="cls-2" d="M367.88,289.44c3.06-2.54,7.16-6,11.89-10.35,7.13-6.51,12.21-11.72,16.48-16.1,2.5-2.57,7.74-8,14.18-15.33,4.46-5,8.28-9.59,11.4-13.42" transform="translate(-116.64 -7.36)"/><path class="cls-2" d="M531.94,299a68.83,68.83,0,0,0-8.43-14.56c-3.56-4.7-5.54-6-17.25-16.87-10.56-9.77-10.48-10.11-17.25-16.1-6.1-5.39-11.32-9.68-15-12.64" transform="translate(-116.64 -7.36)"/><path class="cls-3" d="M413.6,60.35c1.06-3.42,2.71-4.92,23.37-18.24C455.7,30,469.39,21.54,480.28,16.17c9.48-4.67,10.59-3.91,14.59-6.72a7.77,7.77,0,0,1,3.65-1.54c3.13-.37,5.92,1.59,8,3.42C512.85,17,517,25.51,518.19,28.14,528.48,50,531.54,58.37,532.72,61.77c1.78,5.11,1.5,5.25,3.31,10.1,1.51,4,2,4.85,1.82,6.14-.85,4.91-10.9,7-14,7.7-13.77,3,8.94-.16-39.05,12.82-37.91,10.26-41,9.25-46.22,13a6.81,6.81,0,0,1-4.79,1.58c-4.81-.7-7.06-8.94-9.69-17.39C415.47,67.87,411.6,66.78,413.6,60.35Z" transform="translate(-116.64 -7.36)"/><path class="cls-2" d="M414,59.26q9.51,2.72,19.26,5.36c21.56,5.83,26.88,7.29,33.34,8.55,16.29,3.17,14.72,1,19.4,3,1,.41,3,1.34,4.54.46,2.78-1.59,1.89-7.86,1.71-9.4-.8-6.9.28-23.06,6.27-59.28" transform="translate(-116.64 -7.36)"/><path class="cls-2" d="M433.83,113.07c4.39-7.64,8.8-15.8,13.11-24.51q4.57-9.23,8.43-18" transform="translate(-116.64 -7.36)"/><path class="cls-2" d="M492.14,57.76,537.85,78" transform="translate(-116.64 -7.36)"/><path class="cls-4" d="M324.78,76.2a101.32,101.32,0,0,1,5.4-15.81c.57-1.28,1.15-2.56,1.76-3.83s1.21-2.47,1.86-3.73q2-3.72,4.28-7.34c1.56-2.39,2.92-5,4.53-7.46A19.86,19.86,0,0,1,348.78,32a29.94,29.94,0,0,1,8.16-3.58,23.88,23.88,0,0,1,9.73-.66l.95,1.41a40.15,40.15,0,0,1-3.31,8.74,47,47,0,0,1-4.18,6.74,21,21,0,0,1-5.4,5.1,49.82,49.82,0,0,0-6.21,4.5c-1.89,1.71-3.75,3.48-5.62,5.32l-2.84,2.79c-.95.92-1.89,1.85-2.81,2.79-3.76,3.75-7.31,7.77-11,11.87Z" transform="translate(-116.64 -7.36)"/><path class="cls-4" d="M343.08,87.79a212.33,212.33,0,0,1,10.69-20.23,207.28,207.28,0,0,1,12.86-19c2.31-3.05,4.37-6.34,6.62-9.48a38.17,38.17,0,0,1,8-8.22,58.9,58.9,0,0,1,10-6.13,41.81,41.81,0,0,1,11.85-3.8l1.13,1.28a51.49,51.49,0,0,1-4.78,11.3,76,76,0,0,1-6.23,9.44,42.14,42.14,0,0,1-7.78,7.78c-2.93,2.27-6,4.46-8.7,7s-5.45,5-8.16,7.53-5.42,5-8.1,7.64c-5.4,5.16-10.63,10.53-16,15.92Z" transform="translate(-116.64 -7.36)"/><path class="cls-4" d="M506,164a306.23,306.23,0,0,1,33.39-25.9A377.08,377.08,0,0,1,576,116.56c6.4-3.2,12.84-6.52,19.53-9.36a88.48,88.48,0,0,1,20.92-6,110.68,110.68,0,0,1,21.74-1.33,81.86,81.86,0,0,1,21.58,3.51l0,1.7c-6.87,2.65-13.54,4.64-20.12,6.71l-19.44,6c-6.41,2-12.81,3.75-19.33,5.38A169.14,169.14,0,0,0,581.52,129c-6.37,2.39-12.68,5.08-19,7.89s-12.68,5.52-18.89,8.56c-12.48,6-24.62,12.7-36.61,19.88Z" transform="translate(-116.64 -7.36)"/><path class="cls-4" d="M565.66,187.23a90,90,0,0,1,15.72-21.4,87.44,87.44,0,0,1,22-16.09c4.06-2.1,8.13-4.32,12.32-6.16a44.26,44.26,0,0,1,13-3.5c2.21-.27,4.42-.38,6.62-.44s4.39,0,6.7.15a45.36,45.36,0,0,1,13.74,2.93l.23,1.68a75.18,75.18,0,0,1-11.65,7.17c-1.9,1-3.92,1.92-5.9,2.76s-4,1.62-6,2.32a65.76,65.76,0,0,1-11.9,3,76.46,76.46,0,0,0-11.87,2.57,102,102,0,0,0-11.25,4.41c-1.84.85-3.68,1.73-5.47,2.71s-3.58,2-5.32,3.08A111.39,111.39,0,0,0,567,188.24Z" transform="translate(-116.64 -7.36)"/><path class="cls-4" d="M288.67,326.4a83.28,83.28,0,0,1,7.4-13.58c1.45-2.15,3-4.26,4.64-6.3s3.42-4,5.26-5.85,3.54-4,5.44-5.93a16.89,16.89,0,0,1,6.66-4.31,26.9,26.9,0,0,1,8.09-1.57,22.43,22.43,0,0,1,9.06,1.48l.67,1.57a35.16,35.16,0,0,1-4.34,7.69,38.73,38.73,0,0,1-4.88,5.49,17.43,17.43,0,0,1-2.73,2.08,20.68,20.68,0,0,1-3.1,1.51,46.15,46.15,0,0,0-6.53,2.73q-6.12,3.45-12.22,7.41c-4.08,2.64-8,5.57-12.07,8.62Z" transform="translate(-116.64 -7.36)"/><path class="cls-4" d="M245.66,334.94a114.58,114.58,0,0,1,29.79-41.64c.8-.75,1.62-1.46,2.45-2.19l2.44-2.23c1.67-1.44,3.31-2.95,5.06-4.31a39.41,39.41,0,0,1,11.52-6.46,53.45,53.45,0,0,1,13-3,39.75,39.75,0,0,1,13.71.85l.46,1.63a84.73,84.73,0,0,1-9.85,8.74c-3.28,2.51-6.52,4.82-9.78,7a66.92,66.92,0,0,1-10.23,5.55c-1.82.75-3.58,1.6-5.39,2.42a56.7,56.7,0,0,0-5.19,2.84l-2.51,1.57c-.83.54-1.64,1.11-2.46,1.66-1.66,1.08-3.25,2.27-4.86,3.44q-4.86,3.51-9.43,7.49a156.85,156.85,0,0,0-17.25,17.5Z" transform="translate(-116.64 -7.36)"/><path class="cls-4" d="M151.83,266.26a59.81,59.81,0,0,1,.8-16,63.73,63.73,0,0,1,2-7.95c.45-1.3.91-2.6,1.43-3.89s1.09-2.54,1.67-3.8c1.21-2.5,2.25-5.18,3.58-7.72a17.81,17.81,0,0,1,5.56-6.35,25.76,25.76,0,0,1,7.8-3.77,21,21,0,0,1,9.43-.58l.94,1.42a43.29,43.29,0,0,1-2.73,8.43,48,48,0,0,1-3.35,6.45,17.93,17.93,0,0,1-4.53,4.94,36.86,36.86,0,0,0-5.27,4.55,97.58,97.58,0,0,0-8.58,11.31,95.75,95.75,0,0,0-7.06,13.21Z" transform="translate(-116.64 -7.36)"/><path class="cls-4" d="M140.24,232.08a238.26,238.26,0,0,1,12.24-23.16q3.38-5.64,7-11.12c2.46-3.63,5-7.19,7.67-10.71s5.1-7.22,7.76-10.77a48.05,48.05,0,0,1,9.25-9.43,70.64,70.64,0,0,1,11.33-7.16,49.14,49.14,0,0,1,13.22-4.64l1.09,1.31a66.8,66.8,0,0,1-6.28,12.26A108.16,108.16,0,0,1,196,179.1,58.91,58.91,0,0,1,187.1,188c-3.3,2.65-6.69,5.25-9.75,8.17q-9.18,8.76-18.12,18c-6,6.12-11.75,12.49-17.57,18.93Z" transform="translate(-116.64 -7.36)"/></svg>