<svg width="123" height="79" viewBox="0 0 123 79" fill="none" xmlns="http://www.w3.org/2000/svg">
<path fill-rule="evenodd" clip-rule="evenodd" d="M61.058 65.992L85.282 41.771L122.119 78.607H73.673H48.443H0L36.836 41.771L61.058 65.992ZM1.401 0L61.057 59.654L120.714 0H1.401ZM0 69.673L31.625 38.045L0 6.42V69.673ZM122.88 72.698L88.227 38.045L122.88 3.393V72.698Z" fill="#D8FFC6"/>
<path d="M60.7045 66.3456L61.058 66.6991L61.4115 66.3456L85.282 42.4781L120.912 78.107H73.673H48.443H1.20711L36.836 42.4781L60.7045 66.3456ZM61.057 58.9469L2.60814 0.5H119.507L61.057 58.9469ZM0.5 7.62711L30.9179 38.045L0.5 68.4658V7.62711ZM122.38 4.60008V71.4909L88.9341 38.045L122.38 4.60008Z" stroke="black" stroke-opacity="0.4"/>
</svg>
