<svg xmlns="http://www.w3.org/2000/svg" xmlns:xlink="http://www.w3.org/1999/xlink" viewBox="0 0 647 387.08"><defs><style>.cls-1{fill:#e6e6ff;}.cls-2{fill:#503335;}.cls-3{fill:#090446;}.cls-4{fill:#ffdc97;}.cls-5{fill:#390067;}.cls-6{fill:url(#radial-gradient);}.cls-7{fill:url(#radial-gradient-2);}.cls-8{opacity:0.6;}.cls-9{fill:#673335;}.cls-10{fill:url(#radial-gradient-3);}.cls-11{fill:url(#radial-gradient-4);}</style><radialGradient id="radial-gradient" cx="135.88" cy="209.86" r="24.75" gradientTransform="translate(17.25 -3.55) scale(0.88 1.02)" gradientUnits="userSpaceOnUse"><stop offset="0" stop-color="#ff6b6b" stop-opacity="0.6"/><stop offset="0.28" stop-color="#ff7d72" stop-opacity="0.58"/><stop offset="0.69" stop-color="#ffad85" stop-opacity="0.54"/><stop offset="1" stop-color="#ffdc97" stop-opacity="0.5"/></radialGradient><radialGradient id="radial-gradient-2" cx="136.5" cy="210.5" r="23.59" gradientTransform="matrix(0.96, -0.29, 0.33, 1.11, -64.55, 15.38)" gradientUnits="userSpaceOnUse"><stop offset="0.2" stop-color="#ff8073" stop-opacity="0.8"/><stop offset="0.3" stop-color="#ff8475" stop-opacity="0.7"/><stop offset="0.36" stop-color="#ff8976" stop-opacity="0.56"/><stop offset="0.4" stop-color="#ff8b77" stop-opacity="0.5"/><stop offset="0.46" stop-color="#ffaa83" stop-opacity="0.28"/><stop offset="0.52" stop-color="#ffc58e" stop-opacity="0.08"/><stop offset="0.55" stop-color="#ffd092" stop-opacity="0"/><stop offset="0.6" stop-color="#ffd996" stop-opacity="0.07"/><stop offset="0.63" stop-color="#ffdc97" stop-opacity="0.1"/><stop offset="0.66" stop-color="#ffdc97" stop-opacity="0.27"/><stop offset="0.69" stop-color="#ffdc97" stop-opacity="0.44"/><stop offset="0.72" stop-color="#ffdc97" stop-opacity="0.59"/><stop offset="0.75" stop-color="#ffdc97" stop-opacity="0.72"/><stop offset="0.78" stop-color="#ffdc97" stop-opacity="0.82"/><stop offset="0.82" stop-color="#ffdc97" stop-opacity="0.9"/><stop offset="0.86" stop-color="#ffdc97" stop-opacity="0.96"/><stop offset="0.91" stop-color="#ffdc97" stop-opacity="0.99"/><stop offset="1" stop-color="#ffdc97"/></radialGradient><radialGradient id="radial-gradient-3" cx="243" cy="212.8" r="24.75" gradientTransform="matrix(0, 0.88, -1.02, 0, 447.55, 0.25)" xlink:href="#radial-gradient"/><radialGradient id="radial-gradient-4" cx="230.5" cy="213.5" r="23.59" gradientTransform="translate(81.37 -90.59) rotate(16.76) scale(1 1.16)" xlink:href="#radial-gradient-2"/></defs><g id="Layer_2" data-name="Layer 2"><g id="Layer_3" data-name="Layer 3"><g id="Layer_4" data-name="Layer 4"><path class="cls-1" d="M323.5,0C144.84,0,0,86.63,0,193.5c0,49.76,31.41,95.13,83,129.41.86-17.82,51.92-28.3,55-28.91,0,0,60.26-11.95,129.1,31.5A36.86,36.86,0,0,1,274,331c6.72,6.89,8.34,14.3,12,28,6.18,23.13,7.52,24.3,6,27a.35.35,0,0,0-.05.08q15.57.9,31.55.92C502.16,387,647,300.37,647,193.5S502.16,0,323.5,0Z"/><path class="cls-2" d="M136.89,72.28c-6.6,4.21-12.91,11.68-26,26-14.65,16-22,24.06-24.92,31.76-6,15.74,1.3,20.09-1,52-1.59,22-5.21,22.12-4,36,1.69,19.49,9.1,22.3,12,41,4.07,26.26-8.72,32.47-3,45,5.14,11.27,17.25,10.08,101,23,20.45,3.15,41.42.82,62,3,8.61.91,19.17,2.26,25-4,4.3-4.61,2.7-9.79,4-26,1-12.07,2.81-21.17,5-32,4.38-21.66,7.41-23.78,6-33-1.85-12.12-7.59-11.78-9-23-1.82-14.4,7.24-18.07,8-35,.29-6.44-.88-9.18-7-30-10.36-35.22-8.67-32.95-10.73-37.77-10.46-24.46-36.55-42.7-62.74-48.94C208.54,59.58,170.17,51,136.89,72.28Z"/><path class="cls-3" d="M287,360c-3.66-13.7-5.28-21.11-12-28a36.86,36.86,0,0,0-6.9-5.5C199.26,283.05,139,295,139,295c-3.07.61-54.13,11.09-55,28.91,52.61,35,126.21,58.38,208.94,63.17A.35.35,0,0,1,293,387C294.52,384.3,293.18,383.13,287,360Z"/><path class="cls-4" d="M171.37,251c-7.42,7.87,5.1,21.16-3.26,32.78-5.35,7.46-14.52,7.59-14.11,10.93.29,2.35,5.47,3.82,31.48,7,24.9,3,29.36,2.76,30.52.36,2.06-4.27-9.54-8.83-14.23-23.21-4.54-13.91,2.71-21.71-3.26-27.82S177.21,244.77,171.37,251Z"/></g><path class="cls-5" d="M267,188.56a146.13,146.13,0,0,0,44.63,3.08c3.72-.32,7.42-.76,11.09-1.36s7.43-1.22,11.16-1.76c7.46-1.12,14.94-2.05,22.43-2.86,15-1.59,30-2.8,45-4s30-2.25,44.84-3.83,29.94-3.18,45-4.18c7.54-.54,15.11-.85,22.68-1.1s15.16-.19,22.75.1,15.18.78,22.76,1.48c7.57.86,15.14,1.82,22.64,3.31,1.88.37,3.75.71,5.63,1.1s3.77.85,5.65,1.34a73,73,0,0,1,11.24,3.82,43.38,43.38,0,0,1,10.6,6.39,25.88,25.88,0,0,1,7.73,10.66l-.42-.82a4,4,0,0,1,.31.58c.08.17.2.51.21.53l.06.2.11.4.18.72c.09.47.2.94.26,1.4.15.92.24,1.82.3,2.72a34.74,34.74,0,0,1-.12,5.31,42.3,42.3,0,0,1-2.38,10.06,58.84,58.84,0,0,1-4.42,9.1,26.5,26.5,0,0,1-7.69,7.77,46.8,46.8,0,0,1-9,4.75,83.38,83.38,0,0,1-9.3,3.14,153.71,153.71,0,0,1-18.83,3.84c-25.19,3.58-50.4,3.6-75.49,2.94q-9.4-.26-18.81-.73t-18.77-1.14c-12.5-.87-25-1.87-37.46-3.12q-37.39-3.69-74.54-9.21c24.94,2.14,49.88,4.11,74.83,5.59,12.48.7,24.95,1.42,37.43,1.86q9.36.34,18.72.55t18.7.3c12.47.07,24.93-.11,37.34-.72a331,331,0,0,0,36.95-3.5,146.09,146.09,0,0,0,17.86-3.89,75,75,0,0,0,8.43-3,40.17,40.17,0,0,0,7.55-4A18.9,18.9,0,0,0,610.3,227a50.38,50.38,0,0,0,3.74-7.77,34.25,34.25,0,0,0,1.9-8.16A26.28,26.28,0,0,0,616,207c0-.66-.11-1.31-.21-1.94,0-.32-.12-.61-.18-.91l-.1-.41,0-.17,0-.08a2.61,2.61,0,0,0,.16.39,2.51,2.51,0,0,0,.26.45l-.42-.83a17.75,17.75,0,0,0-5.45-7.31,35.29,35.29,0,0,0-8.67-5.14,99,99,0,0,0-20.84-5.78c-7.24-1.48-14.59-2.44-22-3.31-7.39-.71-14.79-1.32-22.22-1.55s-14.89-.28-22.34-.26-14.92.34-22.38.78c-14.94.75-29.83,2.21-44.84,3.47s-30.09,2-45.1,2.83-30,1.45-45,2.58c-7.47.6-14.95,1.16-22.39,2-3.74.39-7.43.86-11.18,1.31s-7.55.78-11.34.91a145.28,145.28,0,0,1-22.66-.91A143,143,0,0,1,267,188.56Z"/><path class="cls-5" d="M331.08,189.68c.73,6.08,1.25,12.15,1.78,18.22l.7,9.1.56,9.1c.17,3,.58,6.07.88,9.11a40.54,40.54,0,0,1-.11,9.08,65.9,65.9,0,0,1-1.78,9.06,42.56,42.56,0,0,1-3.5,9l-1.1,0a41.47,41.47,0,0,1-3.17-9.15,65.49,65.49,0,0,1-1.45-9.12,40.65,40.65,0,0,1,.22-9.09c.41-3,.93-6.05,1.21-9.07l.93-9.08,1.11-9.07c.82-6.05,1.61-12.09,2.62-18.13Z"/><path class="cls-5" d="M346.45,266.68c1.9-5.44,3.93-10.84,5.88-16.27s4-10.81,6.14-16.17c1.1-2.67,2.11-5.37,3.15-8.06a80.72,80.72,0,0,1,3.55-7.88c1.32-2.57,2.75-5.09,4.25-7.56a70.53,70.53,0,0,1,4.94-7.23l.46.21a71.39,71.39,0,0,1-2.21,8.49q-1.31,4.14-2.89,8.16a81.27,81.27,0,0,1-3.59,7.83c-1.34,2.55-2.71,5.08-4,7.66s-2.48,5.18-3.72,7.78l-3.78,7.76c-2.57,5.15-5.08,10.34-7.72,15.47Z"/><path class="cls-5" d="M373.88,203.71l.11-.37.09-.28.48-.1.49-.1.37-.08.33.5,1.3,1.94-.08-.14c.41.61.83,1.23,1.23,1.88l1.12,1.77,2.19,3.5c1.43,2.34,2.89,4.64,4.27,7s2.81,4.62,4.13,7l4,7,.41.74c1.39,2.46,2.95,4.83,4.35,7.29a33.53,33.53,0,0,1,3.17,7.8,55.42,55.42,0,0,1,1.69,8.43,37.26,37.26,0,0,1,.05,9.09l-1.11.46a38.14,38.14,0,0,1-6.57-6.33,56.32,56.32,0,0,1-4.91-7,33.06,33.06,0,0,1-3.44-7.62c-.8-2.69-1.44-5.45-2.26-8.13l.41.74-2.87-8.13c-1-2.69-1.82-5.44-2.72-8.14s-1.73-5.44-2.58-8.13l-1.23-4.06-.59-2-.52-1.87-.08-.15-.66-2.24.71.42-.51,0,.57-.37-.22.32Z"/><path class="cls-5" d="M416.79,266l.24-6c.07-2,.19-4,.12-6-.09-4-.46-8-.52-12.06s-.08-8.07-.14-12.08-.14-8-.5-11.92c-.18-2-.41-4-.63-6a32.46,32.46,0,0,1-.25-3.24,4.89,4.89,0,0,1,0-.53,4.44,4.44,0,0,1,.09-.64,2.39,2.39,0,0,1,.11-.42,3,3,0,0,1,.18-.48,4,4,0,0,1,.34-.54,3.09,3.09,0,0,1,.5-.52,4.12,4.12,0,0,1,.58-.38l.58-.2a4.35,4.35,0,0,1,.58-.13h.48a4.91,4.91,0,0,1,1.52.3,12.72,12.72,0,0,1,3.2,2c.86.71,1.64,1.44,2.39,2.18,1.5,1.49,2.88,3,4.23,4.57,5.34,6.22,10.18,12.72,15,19.21,2.43,3.19,4.88,6.34,7.32,9.48s5,6.07,7.7,9l4,4.4c.66.73,1.32,1.44,2,2.1a22.47,22.47,0,0,0,1.76,1.67l.15.12.08.05,0,0-.06,0-.27-.1-.26-.05a3.12,3.12,0,0,0-.49-.06,4.69,4.69,0,0,0-.58.05,2.44,2.44,0,0,0-.7.2,2.8,2.8,0,0,0-1,.62,2.58,2.58,0,0,0-.32.34l-.12.19-.08.12a1.43,1.43,0,0,0-.21.5,1.07,1.07,0,0,0,0-.21c0-.24,0-.65,0-1.05,0-1.71-.19-3.75-.35-5.73a191.26,191.26,0,0,1-.45-24.44A68.66,68.66,0,0,1,464.69,218,54.52,54.52,0,0,1,469,206.43l.76.25a86.35,86.35,0,0,0-1.4,11.85,54.18,54.18,0,0,0,0,5.84c.09,2,.2,3.93.37,5.9.67,7.89,1.75,15.76,2.79,23.7.24,2,.51,4,.64,6.3a14.32,14.32,0,0,1,0,2,10.27,10.27,0,0,1-.18,1.28,6.68,6.68,0,0,1-.71,1.92l-.17.28-.25.33a6.64,6.64,0,0,1-.56.63,5.31,5.31,0,0,1-1.6,1,6.82,6.82,0,0,1-1.07.3,4,4,0,0,1-.95.06,7.18,7.18,0,0,1-.87-.08l-.61-.16a5.49,5.49,0,0,1-1-.39l-.41-.21-.29-.18a9.89,9.89,0,0,1-1-.7,23.41,23.41,0,0,1-2.6-2.49c-.74-.8-1.43-1.58-2.1-2.36-1.34-1.58-2.59-3.11-3.9-4.7-2.57-3.22-5-6.51-7.36-9.88s-4.62-6.69-6.87-10c-4.47-6.66-9-13.29-13.84-19.51-1.21-1.55-2.45-3.07-3.73-4.49-.64-.71-1.3-1.39-1.95-2a9.86,9.86,0,0,0-1.77-1.35s-.14-.05.06,0l.09,0a.91.91,0,0,0,.23,0,.68.68,0,0,0,.21-.1,1.1,1.1,0,0,0,.26-.18,1.14,1.14,0,0,0,.24-.25.8.8,0,0,0,.14-.22l.05-.13s0-.08,0,0a.39.39,0,0,0,0,.1,1.09,1.09,0,0,0,0,.22c0,.75,0,1.81.08,2.78.11,2,.22,4,.3,6.07.12,4.13-.07,8.19-.26,12.21s-.46,8.06-.63,12c-.08,2-.12,4-.13,6s0,4-.11,6.07-.35,4-.58,6l-.69,6Z"/><path class="cls-5" d="M531,205.08A81.47,81.47,0,0,1,527,222c-.93,2.7-1.92,5.35-3.16,8.06-.3.69-.65,1.37-1,2.08-.19.36-.4.72-.63,1.1l-.6,1c-.83,1.27-1.73,2.5-2.62,3.68s-1.83,2.23-2.51,3.15a10.49,10.49,0,0,0-1.51,2.49c-.17.44-.34.94-.48,1.45a9.4,9.4,0,0,0-.29,1.42c-.07.53-.09,1.21-.12,1.9L514,250.4a58.72,58.72,0,0,1-3.5,17.11,163.86,163.86,0,0,1-3.57-16.76c-.22-1.4-.49-2.68-.62-4.42a14.47,14.47,0,0,1,.08-2.79,20.2,20.2,0,0,1,.51-2.67,17.65,17.65,0,0,1,2.37-5c1-1.38,1.86-2.47,2.67-3.55s1.62-2.09,2.39-3.15l.58-.79c.15-.22.31-.45.47-.7l1-1.63c1.38-2.29,2.8-4.75,4.32-7.13s3.13-4.77,4.81-7.08A66.61,66.61,0,0,1,531,205.08Z"/><path class="cls-5" d="M488.69,204.94c2.22,3,4.33,6.09,6.45,9.14l3.13,4.61,3,4.65c1,1.56,2.12,3,3.19,4.57.52.76,1,1.55,1.48,2.33s.84,1.48,1.23,2.18a17.43,17.43,0,0,0,2.59,3.7,8.87,8.87,0,0,0,4.27,2.45l.11.59a6.47,6.47,0,0,1-3,1.09,8.35,8.35,0,0,1-3.42-.44,12.57,12.57,0,0,1-5.39-3.91,16.5,16.5,0,0,1-1.75-2.51,25.62,25.62,0,0,1-1.23-2.53c-.73-1.72-1.43-3.47-2.22-5.15l-2.35-5.07-2.27-5.11c-1.48-3.43-3-6.84-4.35-10.3Z"/><path class="cls-5" d="M536.1,273.9c1.9-5.44,3.92-10.83,5.88-16.26s4-10.81,6.14-16.17c1.09-2.67,2.1-5.37,3.14-8.07a81.89,81.89,0,0,1,3.56-7.88q2-3.84,4.25-7.56a70.4,70.4,0,0,1,4.94-7.22l.45.21a71.87,71.87,0,0,1-2.2,8.49q-1.31,4.14-2.89,8.15a82.78,82.78,0,0,1-3.59,7.84c-1.34,2.54-2.72,5.08-4,7.65s-2.48,5.19-3.73,7.78l-3.77,7.77c-2.58,5.15-5.09,10.33-7.72,15.47Z"/><path class="cls-5" d="M563.53,210.93l.11-.37.08-.28.48-.1.49-.1.37-.08.34.5,1.3,1.95-.08-.15q.61.91,1.23,1.89L569,216l2.2,3.5c1.43,2.34,2.89,4.65,4.27,7s2.81,4.63,4.12,7l4,7,.41.75c1.38,2.45,2.95,4.83,4.34,7.28a33.63,33.63,0,0,1,3.18,7.81,56.54,56.54,0,0,1,1.69,8.42,36.78,36.78,0,0,1,0,9.09l-1.1.46a38.14,38.14,0,0,1-6.57-6.33,55.18,55.18,0,0,1-4.91-7,33.06,33.06,0,0,1-3.44-7.62c-.81-2.69-1.45-5.45-2.27-8.14l.41.75-2.87-8.13c-1-2.7-1.81-5.45-2.72-8.15s-1.72-5.43-2.57-8.13l-1.23-4.06-.6-2-.52-1.88-.08-.14-.65-2.24.7.42-.5-.05.56-.38-.21.32Z"/></g><g id="Layer_2-2" data-name="Layer 2"><path class="cls-4" d="M268,170c0,51.65-42.32,102.54-84,102-24.73-.32-43.47-18.66-52-27-3.93-3.84-32.5-32.66-32-75,.54-45.82,35.07-102,84-102C230.39,68,268,113.67,268,170Z"/><path class="cls-2" d="M134,85.74c-.15,7.48,13.45,13.29,30.78,20.68a250.07,250.07,0,0,0,50.28,15.24c25.14,4.67,28.91,1.76,36.94,7.62,19.24,14.06,18.32,45.95,19.49,45.72s1.65-24.87-10.26-52.25c-10.81-24.86-26.11-38.5-30.78-42.45-8.12-6.86-17.41-14.71-31.81-17.41-13.77-2.59-24.61,1-34.88,4.35C153.24,70.69,134.18,77,134,85.74Z"/><path class="cls-2" d="M100,179c.06,0-.1-4,.09-7.39,1.24-22.22,19.12-40.7,24.91-46.68,6.84-7.07,8.64-7.1,13-13.24,6.74-9.5,12.57-23.72,9-27.59-2.82-3.06-11.52,1.12-17,5.52s-8.33,9.51-14,22.07c-9.86,21.82-14.81,32.93-16,43A108.72,108.72,0,0,0,100,179Z"/><path d="M120,161.13a19.57,19.57,0,0,1,8.43-9.64A24.86,24.86,0,0,1,141,148a24.5,24.5,0,0,1,12.62,3.41,19.46,19.46,0,0,1,8.35,9.71,22.9,22.9,0,0,0-9.11-8.35A25.89,25.89,0,0,0,141,150a24.44,24.44,0,0,0-6.08.73,26.71,26.71,0,0,0-5.78,2.11A23,23,0,0,0,120,161.13Z"/><path d="M203.41,161.53a19.58,19.58,0,0,1,8.43-9.64,24.89,24.89,0,0,1,12.6-3.48,24.46,24.46,0,0,1,12.62,3.4,19.53,19.53,0,0,1,8.35,9.72,22.84,22.84,0,0,0-9.11-8.35,25.74,25.74,0,0,0-11.85-2.77,24,24,0,0,0-6.08.73,25.93,25.93,0,0,0-5.77,2.11A22.93,22.93,0,0,0,203.41,161.53Z"/><ellipse class="cls-6" cx="136.5" cy="210.5" rx="21.5" ry="25.5" transform="matrix(0.96, -0.29, 0.29, 0.96, -54.73, 48.11)"/><path class="cls-7" d="M134.46,186.3h0c9.53,0,18.44,7.53,21.68,18.31,3.88,12.94-1.77,26.11-12.6,29.36a17.58,17.58,0,0,1-5,.73c-9.53,0-18.44-7.53-21.68-18.31a27,27,0,0,1,.81-18.39,18.88,18.88,0,0,1,11.79-11,17.58,17.58,0,0,1,5-.73m0-1a18.22,18.22,0,0,0-5.29.78c-11.37,3.41-17.31,17.11-13.26,30.6,3.42,11.41,12.9,19,22.63,19a18.22,18.22,0,0,0,5.29-.78c11.37-3.41,17.31-17.11,13.26-30.6-3.42-11.41-12.9-19-22.63-19Z"/><g class="cls-8"><path class="cls-9" d="M125,173.27a9.88,9.88,0,0,1,2.79-3.55,16.73,16.73,0,0,1,3.92-2.39,22.77,22.77,0,0,1,8.95-1.82,22.26,22.26,0,0,1,9,1.78,16.53,16.53,0,0,1,3.92,2.39,9.88,9.88,0,0,1,2.75,3.59,17.59,17.59,0,0,0-7.46-3.76,31.68,31.68,0,0,0-8.16-1,33.29,33.29,0,0,0-8.18,1A18.29,18.29,0,0,0,125,173.27Z"/></g><g class="cls-8"><path class="cls-9" d="M209.16,173.16a10,10,0,0,1,2.79-3.55,16.94,16.94,0,0,1,3.92-2.39,23,23,0,0,1,8.95-1.82,22.26,22.26,0,0,1,9,1.78,16.5,16.5,0,0,1,3.93,2.4,9.76,9.76,0,0,1,2.75,3.58A17.65,17.65,0,0,0,233,169.4a32.19,32.19,0,0,0-8.17-1,32.68,32.68,0,0,0-8.17,1A18.19,18.19,0,0,0,209.16,173.16Z"/></g><ellipse class="cls-10" cx="230.5" cy="213.5" rx="25.5" ry="21.5" transform="translate(-40.41 372.63) rotate(-73.24)"/><path class="cls-11" d="M232.55,188.3v1a17.43,17.43,0,0,1,5,.74c10.82,3.26,16.46,16.44,12.56,29.37-3.24,10.77-12.16,18.29-21.68,18.29a17.43,17.43,0,0,1-5-.74,18.84,18.84,0,0,1-11.77-11,26.9,26.9,0,0,1-.79-18.39c3.24-10.77,12.16-18.29,21.68-18.29v-1m0,0c-9.72,0-19.2,7.6-22.64,19-4.06,13.48,1.87,27.19,13.24,30.62a18.59,18.59,0,0,0,5.3.78c9.72,0,19.2-7.6,22.64-19,4.06-13.48-1.87-27.19-13.24-30.62a18.59,18.59,0,0,0-5.3-.78Z"/></g></g></svg>