<svg xmlns="http://www.w3.org/2000/svg" viewBox="0 0 532.18 496.52"><defs><style>.cls-1{fill:#e6e6fa;}.cls-12,.cls-2,.cls-3,.cls-8,.cls-9{fill:none;}.cls-10,.cls-11,.cls-13,.cls-15,.cls-16,.cls-17,.cls-18,.cls-2,.cls-3,.cls-4,.cls-5,.cls-6,.cls-7,.cls-9{stroke:#000;}.cls-10,.cls-11,.cls-12,.cls-13,.cls-14,.cls-15,.cls-16,.cls-17,.cls-18,.cls-2,.cls-3,.cls-4,.cls-5,.cls-6,.cls-7,.cls-8,.cls-9{stroke-miterlimit:10;}.cls-10,.cls-11,.cls-12,.cls-2{stroke-width:2px;}.cls-4{fill:#d8ffc6;}.cls-10,.cls-17,.cls-5{fill:#fff;}.cls-6{fill:#ffd0ff;}.cls-7{fill:#050505;}.cls-12,.cls-8{stroke:#fff;}.cls-9{stroke-dasharray:5.96 5.96;}.cls-11{fill:#252444;}.cls-13,.cls-14{fill:#191919;}.cls-14{stroke:#f9f9f9;}.cls-15{fill:#747770;}.cls-16{fill:#9a9a9a;}.cls-17{stroke-width:0.5px;}</style></defs><g id="Layer_2" data-name="Layer 2"><circle class="cls-1" cx="251.05" cy="237.95" r="237.95"/><line class="cls-2" y1="475.91" x2="532.18" y2="475.91"/></g><g id="Layer_3" data-name="Layer 3"><path class="cls-3" d="M331.07,121.39" transform="translate(-96.79 -2.29)"/><path class="cls-4" d="M397.7,77.22a47.31,47.31,0,0,0,1.09-10.74,47.81,47.81,0,0,0-1.38-10.77L386,55.94A43.77,43.77,0,0,0,381.62,45l7.76-7.4A47.41,47.41,0,0,0,382.82,29a46.88,46.88,0,0,0-8.37-6.91l-7.65,7.46A43,43,0,0,0,353.28,24l.09-10.26a47.6,47.6,0,0,0-10.72-1.27,46.94,46.94,0,0,0-10.79,1.19c0,3.62,0,7.25,0,10.87a43.87,43.87,0,0,0-12.4,5.64l-7.82-7.44a47.5,47.5,0,0,0-14.75,15.66L305.07,46a43.59,43.59,0,0,0-3.75,9.72l-11.45-.27a47.63,47.63,0,0,0-.4,21.51l11.73.15a43.76,43.76,0,0,0,3.65,9.75l-9.27,8a47.89,47.89,0,0,0,6.12,8.89,47.37,47.37,0,0,0,8,7.31l9.33-8.24a43.51,43.51,0,0,0,13,6l-.3,12.63a47.63,47.63,0,0,0,21.51.4q.08-6.28.16-12.59a43.2,43.2,0,0,0,13.14-5.41l9.18,8.64a47.36,47.36,0,0,0,14.67-15.73l-8.95-8.25A43.1,43.1,0,0,0,386,77.32Z" transform="translate(-96.79 -2.29)"/><circle class="cls-5" cx="246.83" cy="65.34" r="26.11"/><rect class="cls-5" x="24.24" y="94.59" width="330.86" height="234.71"/><rect class="cls-4" x="12.9" y="69.72" width="324.18" height="21.66" rx="10.83"/><rect class="cls-4" x="133.79" y="116.9" width="100.54" height="61.39"/><rect class="cls-3" x="125.78" y="110.67" width="113.88" height="74.74"/><rect class="cls-4" x="174.99" y="296.62" width="37.98" height="12.01" rx="6.01"/><rect class="cls-4" x="223.52" y="296.62" width="37.98" height="12.01" rx="6.01"/><line class="cls-2" x1="270.81" y1="289.06" x2="319.07" y2="289.06"/><line class="cls-2" x1="270.81" y1="296.62" x2="319.07" y2="296.62"/><line class="cls-2" x1="270.81" y1="304.18" x2="302.84" y2="304.18"/><rect class="cls-5" x="144.25" y="128.46" width="79.26" height="34.48"/><circle class="cls-5" cx="320.67" cy="80.55" r="5.61"/><circle class="cls-5" cx="338.93" cy="80.55" r="5.61"/><circle class="cls-5" cx="356.92" cy="80.55" r="5.61"/><circle class="cls-4" cx="159.55" cy="145.7" r="5.61"/><circle class="cls-4" cx="184.06" cy="145.7" r="5.61"/><circle class="cls-4" cx="207.27" cy="145.7" r="5.61"/><line class="cls-2" x1="47.11" y1="241.37" x2="141.43" y2="241.23"/><line class="cls-2" x1="47.12" y1="250.23" x2="141.44" y2="250.09"/><line class="cls-2" x1="47.88" y1="259.18" x2="110.47" y2="259.09"/><path class="cls-6" d="M256.55,6.18H195.87a5.41,5.41,0,0,0-5.39,5.4V37a5.41,5.41,0,0,0,5.39,5.4h25.38L225,54q1.56-5.76,3.14-11.53h28.44a5.41,5.41,0,0,0,5.39-5.4V11.58A5.41,5.41,0,0,0,256.55,6.18Z" transform="translate(-96.79 -2.29)"/><path class="cls-3" d="M151.64,173.56" transform="translate(-96.79 -2.29)"/><path class="cls-4" d="M180.43,154.48a21.16,21.16,0,0,0,.47-4.65,20.75,20.75,0,0,0-.6-4.65l-4.93.1a18.79,18.79,0,0,0-1.89-4.73l3.35-3.2a20.78,20.78,0,0,0-2.83-3.71,20,20,0,0,0-3.62-3l-3.3,3.22a19,19,0,0,0-5.85-2.42c0-1.47,0-3,0-4.43a20.62,20.62,0,0,0-9.29,0v4.7a18.83,18.83,0,0,0-5.35,2.44l-3.38-3.21a19.85,19.85,0,0,0-3.57,3,20.65,20.65,0,0,0-2.81,3.75L140.4,141a18.73,18.73,0,0,0-1.62,4.2l-4.95-.11a20.42,20.42,0,0,0-.17,9.29l5.06.07a19,19,0,0,0,1.59,4.21l-4,3.46a20.63,20.63,0,0,0,2.64,3.85,21,21,0,0,0,3.47,3.16l4-3.57a18.85,18.85,0,0,0,5.63,2.58c0,1.82-.09,3.64-.13,5.46a20.42,20.42,0,0,0,9.29.17c0-1.81.05-3.62.07-5.44A18.82,18.82,0,0,0,167,166l4,3.74a20.53,20.53,0,0,0,6.35-6.8l-3.87-3.56a18.73,18.73,0,0,0,1.94-4.81Z" transform="translate(-96.79 -2.29)"/><circle class="cls-5" cx="60.27" cy="148.04" r="11.28"/><path class="cls-3" d="M191.05,187.27" transform="translate(-96.79 -2.29)"/><path class="cls-4" d="M211.21,173.91a14.7,14.7,0,0,0-.09-6.51l-3.45.07a13.11,13.11,0,0,0-1.33-3.31l2.35-2.24a15.05,15.05,0,0,0-2-2.6,14.37,14.37,0,0,0-2.53-2.08l-2.31,2.25a13.05,13.05,0,0,0-4.09-1.69l0-3.1a14.65,14.65,0,0,0-3.25-.39,15,15,0,0,0-3.26.36c0,1.1,0,2.2,0,3.29a13.16,13.16,0,0,0-3.75,1.71l-2.37-2.25a14.06,14.06,0,0,0-4.46,4.74l2.47,2.29a13.09,13.09,0,0,0-1.14,2.94l-3.46-.08a14.46,14.46,0,0,0-.12,6.5l3.55.05a13.24,13.24,0,0,0,1.1,2.95l-2.8,2.42a13.72,13.72,0,0,0,1.85,2.69,14.06,14.06,0,0,0,2.43,2.21l2.82-2.49a13.13,13.13,0,0,0,3.93,1.8l-.09,3.82a14.32,14.32,0,0,0,3.24.44,14.15,14.15,0,0,0,3.27-.32c0-1.26,0-2.53,0-3.8a13.11,13.11,0,0,0,4-1.64l2.78,2.61a14.24,14.24,0,0,0,2.48-2.11,15.16,15.16,0,0,0,2-2.64l-2.71-2.5a13.16,13.16,0,0,0,1.36-3.36Z" transform="translate(-96.79 -2.29)"/><circle class="cls-5" cx="98.06" cy="168.71" r="7.9"/><path class="cls-5" d="M198.32,212.61H180.39v19.72H192a10,10,0,0,1,1.05-1.44c-.34.31-.65.58-.88.77l-.26-6.09,5.66,1.13c-.84.76-1.53,1.4-2.06,1.9a33.11,33.11,0,0,0,2.8-2.39Z" transform="translate(-96.79 -2.29)"/><path class="cls-5" d="M193.06,230.89l.82-.74c.55-.51.88-.82,1.34-1.27l.3-.28A20.42,20.42,0,0,0,193.06,230.89Z" transform="translate(-96.79 -2.29)"/><path class="cls-5" d="M392.57,116.62H374.64v19.72h11.62a10.08,10.08,0,0,1,1.06-1.44c-.35.31-.65.58-.89.77l-.26-6.09,5.67,1.13c-.85.76-1.54,1.4-2.06,1.9a34.59,34.59,0,0,0,2.79-2.39Z" transform="translate(-96.79 -2.29)"/><path class="cls-5" d="M387.32,134.9l.82-.74c.55-.51.87-.82,1.34-1.27l.3-.28A19,19,0,0,0,387.32,134.9Z" transform="translate(-96.79 -2.29)"/><path class="cls-5" d="M127.62,289.05H109.68v19.73H121.3a9.73,9.73,0,0,1,1.06-1.44l-.88.77-.27-6.1,5.67,1.14c-.85.76-1.53,1.4-2.06,1.9,1-.79,2-1.55,2.8-2.39Z" transform="translate(-96.79 -2.29)"/><path class="cls-5" d="M122.36,307.34l.82-.74c.55-.51.88-.83,1.34-1.27l.3-.28A18.34,18.34,0,0,0,122.36,307.34Z" transform="translate(-96.79 -2.29)"/><rect class="cls-7" x="65.73" y="311.3" width="70.73" height="44.93"/><rect class="cls-4" x="65.73" y="311.3" width="70.73" height="12.01" rx="0.57"/><line class="cls-8" x1="72.36" y1="330.44" x2="121.28" y2="330.22"/><line class="cls-8" x1="72.39" y1="338.18" x2="121.31" y2="337.97"/><line class="cls-8" x1="73.05" y1="345.83" x2="101.53" y2="345.71"/><rect class="cls-7" x="321.56" y="138.35" width="70.73" height="44.93"/><rect class="cls-4" x="321.56" y="138.35" width="70.73" height="12.01" rx="0.57"/><line class="cls-8" x1="328.19" y1="157.49" x2="377.11" y2="157.27"/><line class="cls-8" x1="328.22" y1="165.23" x2="377.14" y2="165.02"/><line class="cls-8" x1="328.88" y1="172.88" x2="357.36" y2="172.76"/><path class="cls-5" d="M496,116.61a11.61,11.61,0,0,1-6.08-5.83c-2.38-5.4.81-10.46,1.26-11.15.62-.94,3.05-4.65,6.76-5.12,1.31-.16,2.44.12,3.38-.71,1.09-1,.94-2.59,1-3.81.25-4.06,3.26-7.06,4.81-8.61a17.72,17.72,0,0,1,11.66-5.07c1,0,2,0,3,0,2.22,0,2.81.18,3.3-.26.69-.62.32-1.59.51-3.29a15.3,15.3,0,0,1,1.52-4.31,26.92,26.92,0,0,1,16.73-13.18c12-3.08,21.5,3.68,22.81,4.81A12,12,0,0,1,569,62.62c.93,1.57.76,2.46,1.52,3,1.31,1,3.71-.15,4.56-.51,6-2.48,14.15,1.73,15.72,2.54,9,4.66,11.7,14.07,12.17,15.71,1.09,3.85,2.26,8,.25,10.9-.56.82-1.64,2-1.27,2.79s2.29.34,3.8,1.27c2.53,1.57,2.33,6.51,1.78,9.12-.29,1.36-1.27,6-5.58,8.12a10.5,10.5,0,0,1-6.84.76Z" transform="translate(-96.79 -2.29)"/><line class="cls-3" x1="453.18" y1="96.65" x2="453.18" y2="99.65"/><line class="cls-9" x1="453.18" y1="105.61" x2="453.18" y2="138.38"/><line class="cls-3" x1="453.18" y1="141.36" x2="453.18" y2="144.36"/><path d="M550,92.91a30.2,30.2,0,0,1-4.76,8.55L550,99.74l4.75,1.72A30.18,30.18,0,0,1,550,92.91Z" transform="translate(-96.79 -2.29)"/><path class="cls-5" d="M203.88,425.89a11.62,11.62,0,0,1-6.09-5.83c-2.38-5.4.82-10.47,1.27-11.16.62-.94,3-4.65,6.75-5.11,1.32-.17,2.45.12,3.39-.71,1.09-1,.94-2.59,1-3.81.26-4.06,3.27-7.07,4.82-8.62a17.75,17.75,0,0,1,11.66-5.06c1,0,2,0,3,0,2.22.05,2.8.18,3.29-.26.7-.62.33-1.6.51-3.29a15.75,15.75,0,0,1,1.52-4.31,27,27,0,0,1,16.73-13.18c12-3.08,21.51,3.68,22.81,4.81a11.64,11.64,0,0,1,2.29,2.54c.92,1.56.75,2.46,1.52,3,1.3,1,3.71-.15,4.56-.51,6-2.48,14.15,1.73,15.71,2.54,9,4.65,11.7,14.06,12.17,15.71,1.1,3.85,2.27,8,.25,10.9-.56.82-1.64,1.95-1.26,2.79s2.29.33,3.8,1.27c2.53,1.56,2.33,6.5,1.77,9.12-.28,1.35-1.26,6-5.57,8.11a10.4,10.4,0,0,1-6.85.76Z" transform="translate(-96.79 -2.29)"/><line class="cls-3" x1="165.16" y1="444.43" x2="165.16" y2="441.43"/><line class="cls-9" x1="165.16" y1="435.48" x2="165.16" y2="402.71"/><line class="cls-3" x1="165.16" y1="399.73" x2="165.16" y2="396.73"/><path d="M261.94,452.76a30.15,30.15,0,0,1,4.76-8.54l-4.76,1.72-4.75-1.72A30.12,30.12,0,0,1,261.94,452.76Z" transform="translate(-96.79 -2.29)"/><line class="cls-2" x1="101.65" y1="21.74" x2="149.92" y2="21.74"/><line class="cls-2" x1="101.65" y1="13.4" x2="149.92" y2="13.4"/><line class="cls-2" x1="101.65" y1="30.08" x2="133.68" y2="30.08"/></g><g id="Layer_4" data-name="Layer 4"><path class="cls-10" d="M493.46,474.33a72.69,72.69,0,0,0,15.24,1.4c12.08-.17,17.55-3.36,24.84-.2,1.26.54,5.74,2.48,6.57,6,.91,3.89-3.19,7.26-4.13,8-2.5,2-5.05,2.75-17.45,4.59-6.42,1-10.31,1.53-17.54,2.33-5.33.6-9.79,1-13,1.3l-12.64-14.06Z" transform="translate(-96.79 -2.29)"/><path class="cls-11" d="M491,471.19a135.47,135.47,0,0,0,15.24,1.4c8.15.27,14.9-.26,24.07,2,4.73,1.17,6.66,2.23,7.34,3.8,1.49,3.43-3.66,7.64-4.13,8-2.5,2-5,2.75-17.45,4.59-6.42,1-10.31,1.53-17.54,2.34-5.33.59-9.79,1-13,1.29L471.51,482Z" transform="translate(-96.79 -2.29)"/><path class="cls-10" d="M517.79,490.75c-.27-.13-.43-.33-1-1.73a18.92,18.92,0,0,1-.81-2.38,9.66,9.66,0,0,1-.2-2.58,10.07,10.07,0,0,1,1.15-4,12.47,12.47,0,0,1,2.3-3c1.8-1.85,2.61-1.8,4.18-3.24a1.68,1.68,0,0,1,.72-.44c.62-.17,1.12.08,2.19.35.56.14.26,0,1.65.31a35.63,35.63,0,0,1,5,1.23,13.58,13.58,0,0,1,3.3,1.65,3.76,3.76,0,0,1,1.21,1.14,3.27,3.27,0,0,1,.36,2.34,5.87,5.87,0,0,1-1.07,2.47,12.39,12.39,0,0,1-1.45,1.82,13.45,13.45,0,0,1-3.86,3,16.44,16.44,0,0,1-3.16,1.1,49.81,49.81,0,0,1-5.08,1.05c-2.78.49-2.37.3-3.19.53C518.89,490.71,518.34,491,517.79,490.75Z" transform="translate(-96.79 -2.29)"/><ellipse class="cls-5" cx="486.1" cy="488.11" rx="2.66" ry="4.21" transform="translate(-191.46 856.26) rotate(-77.65)"/><path class="cls-12" d="M510.21,482.63a11,11,0,0,1,.18-2.79,12.55,12.55,0,0,1,4.6-7.09" transform="translate(-96.79 -2.29)"/><path class="cls-12" d="M505.6,482.48a10.24,10.24,0,0,1,.18-2.8,12.5,12.5,0,0,1,4.59-7.09" transform="translate(-96.79 -2.29)"/><path class="cls-12" d="M501,481.91a10.17,10.17,0,0,1,.18-2.79,12.54,12.54,0,0,1,4.59-7.1" transform="translate(-96.79 -2.29)"/><path class="cls-12" d="M495.28,481.67a11,11,0,0,1,.18-2.79,12.55,12.55,0,0,1,4.6-7.1" transform="translate(-96.79 -2.29)"/><path class="cls-12" d="M489.31,480.93a11,11,0,0,1,.18-2.79,12.52,12.52,0,0,1,4.6-7.09" transform="translate(-96.79 -2.29)"/><path class="cls-10" d="M421.76,470.33a62.65,62.65,0,0,1-15-.54c-11.77-1.88-16.74-6.24-24.22-3.7-1.3.44-5.9,2-7.12,5.87-1.35,4.27,2.25,8.64,3.08,9.61,2.2,2.6,4.6,3.8,16.48,7.61,6.16,2,9.89,3.16,16.86,5.07,5.12,1.41,9.43,2.5,12.5,3.26q7-7,14-14.08Z" transform="translate(-96.79 -2.29)"/><path class="cls-11" d="M424.52,467.13a114,114,0,0,1-15-.55c-8-.82-14.51-2.36-23.73-1.08-4.75.65-6.76,1.58-7.61,3.26-1.86,3.65,2.67,9.12,3.08,9.6,2.2,2.6,4.6,3.81,16.49,7.61,6.16,2,9.88,3.16,16.85,5.07,5.13,1.41,9.43,2.51,12.5,3.27L442.28,482Z" transform="translate(-96.79 -2.29)"/><path class="cls-10" d="M396.08,485.45c.27-.11.45-.32,1.14-1.82a19.87,19.87,0,0,0,1.07-2.56,12.25,12.25,0,0,0,.5-2.89,12.92,12.92,0,0,0-.65-4.62,14.45,14.45,0,0,0-1.89-3.72c-1.54-2.33-2.33-2.39-3.69-4.23a1.78,1.78,0,0,0-.66-.59c-.58-.28-1.1-.07-2.18.08-.56.08-.25,0-1.64.13a29.59,29.59,0,0,0-5,.69,12,12,0,0,0-3.41,1.39,3.91,3.91,0,0,0-1.32,1.12,4.13,4.13,0,0,0-.63,2.59,7.51,7.51,0,0,0,.76,2.94,13.89,13.89,0,0,0,1.2,2.24,14.23,14.23,0,0,0,3.41,3.92A15,15,0,0,0,386,481.8a44.25,44.25,0,0,0,4.83,1.89c2.66.95,2.28.68,3.06,1.05C395,485.25,395.51,485.66,396.08,485.45Z" transform="translate(-96.79 -2.29)"/><ellipse class="cls-5" cx="427.31" cy="486.88" rx="4.14" ry="3.02" transform="translate(-158.32 59.53) rotate(-7.72)"/><path class="cls-12" d="M404.43,477.35a13.87,13.87,0,0,0,.15-3.17,15.15,15.15,0,0,0-3.64-8.63" transform="translate(-96.79 -2.29)"/><path class="cls-12" d="M409,477.82a13.89,13.89,0,0,0,.16-3.18,15.18,15.18,0,0,0-3.65-8.63" transform="translate(-96.79 -2.29)"/><path class="cls-12" d="M413.48,477.82a13.93,13.93,0,0,0,.15-3.18A15.18,15.18,0,0,0,410,466" transform="translate(-96.79 -2.29)"/><path class="cls-12" d="M419.11,478.35a13.89,13.89,0,0,0,.16-3.18,15.18,15.18,0,0,0-3.65-8.63" transform="translate(-96.79 -2.29)"/><path class="cls-12" d="M425,478.35a13.93,13.93,0,0,0,.15-3.18,15.18,15.18,0,0,0-3.64-8.63" transform="translate(-96.79 -2.29)"/><path class="cls-6" d="M521.76,420.69a36.57,36.57,0,0,1,17.83,5.48s.54.34,1,.68c.28.2,19.58,15.82,14.62,30.79-3,9-13.2,13.32-18.88,15.73a73.4,73.4,0,0,1-10.89,3.37,138,138,0,0,1-16.34,3.12,165.22,165.22,0,0,1-17.64,1.29,171.65,171.65,0,0,1-32.23-1.64c-11.77-1.82-20.44-4.63-32.78-8.59-6.66-2.14-10.08-3.24-14.8-5.19-14.27-5.9-26.15-10.82-33.49-22.33-2.07-3.25-7.7-12.07-5.39-22.71a25,25,0,0,1,8.85-14.24c7.28-5.51,16.11-4.95,20.4-4.62,25.93,2,42.67,8.15,64.67,11.55C472.47,414.27,508.66,419.87,521.76,420.69Z" transform="translate(-96.79 -2.29)"/><path class="cls-6" d="M537.09,427.3a22.29,22.29,0,0,0-9.23-4.3c-3.23-.65-6.73-.57-12.93,1.23-7.51,2.17-12.6,5-18.93,8.46-14,7.66-6.92,3.6-18.46,10-8.27,4.59-16.81,8.65-25.08,13.24-4.92,2.72-7.22,4.09-10.93,4.3-4.07.24-6.79-1.11-11.85.16-2.39.59-4.47,1.12-5.23,2.77-.91,2,1,4.85,4.93,10.46a83.33,83.33,0,0,0,6.92,8.62c4.5,5.07,6,5.89,7.54,6.31,1.2.32,4.06,1.09,6.16-.31a11.58,11.58,0,0,1,2.92-2,8.08,8.08,0,0,1,2.62-.46,39.33,39.33,0,0,0,7.61-1c1.86-.55,2.51-1.09,3.46-.7,1.13.47,1.08,1.57,2,2.31,1.65,1.32,4.63.1,7.24-.92,3.26-1.29,6.73-2.08,9.84-3.69,11.28-5.87,27.69-2.63,49.55-10.78a94.58,94.58,0,0,0,11.85-5.38" transform="translate(-96.79 -2.29)"/><path class="cls-3" d="M548.17,455.62c-1.89,6.89-6,11.58-10.31,11.69a6.7,6.7,0,0,1-3.23-.77" transform="translate(-96.79 -2.29)"/><path class="cls-3" d="M452.77,464.23c6,1.75,11.18,2.91,15.23,3.7a156.3,156.3,0,0,0,27.23,2.92c1.81,0,3.3,0,4.31,0" transform="translate(-96.79 -2.29)"/><path class="cls-3" d="M505.08,470.7l5.85-.46" transform="translate(-96.79 -2.29)"/><path class="cls-3" d="M474.9,426.17c5.2,4.67,7.58,9.38,6.18,11.64a3.47,3.47,0,0,1-2.38,1.42" transform="translate(-96.79 -2.29)"/><path class="cls-3" d="M385.33,442.32a79.9,79.9,0,0,0,6.89,7.13,84.75,84.75,0,0,0,31.6,18.06" transform="translate(-96.79 -2.29)"/><path class="cls-3" d="M455.42,435.67a14.93,14.93,0,0,1,.47,6.18,14.43,14.43,0,0,1-.95,3.56" transform="translate(-96.79 -2.29)"/><path class="cls-3" d="M453.52,430.92l-2.85-2.61" transform="translate(-96.79 -2.29)"/><path class="cls-3" d="M437.84,427.83c1.51,1.34,3.91,3.49,6.89,6.18,5.26,4.75,6,5.52,6.65,7.13,1,2.64.61,4.71,2.14,5.46,1.23.61,2.25-.4,4.27,0a6.7,6.7,0,0,1,3.57,2.14" transform="translate(-96.79 -2.29)"/><path class="cls-13" d="M433.86,250.82c1-.36,2,.06,4,.88,3.54,1.45,5.19,3.67,7.33,5.8,1.37,1.36,6.81,6.8,14.12,8.59,3.2.79,3.65.11,7.3,1.22a47.77,47.77,0,0,1,8.47,3.83,48.4,48.4,0,0,1,6.13,3.47c2.91,2.19,3.48,3.57,6.06,4.5,1.28.46,1.07.1,4.49.77,5.66,1.12,6.35,2.13,6.6,2.68a3.38,3.38,0,0,1-.08,2.65c-.45,1-1.16,1.05-2,2.26a4.41,4.41,0,0,0-.92,2.25c.06,2.35,5.29,3.92,6,4.12,2,.61,5,.59,10.74.53a41,41,0,0,0,7.83-.8c2.79-.57,3.9-1.12,4.51-2.12s.44-2.12,1.33-2.65a2.77,2.77,0,0,1,2.28,0c4.07,1.34,6.1,2,6.74,2.35,1.62.87.44.05,8.75,3.19a99.58,99.58,0,0,1,12.07,5.17,20.36,20.36,0,0,1,4.31,2.65c1.61,1.49,3.19,3.73,4.58,9.42a56.62,56.62,0,0,1,1.5,15.73c-.17,3.8-.45,5.75-.61,11.13a52.1,52.1,0,0,0,.2,5.9c.62,7.15,1.87,9.82.81,14.6-1.22,5.56-4.33,8.34-6.89,11.76-6.76,9-7.48,20.76-8.92,44.21-.61,9.93-.55,19.24-2.44,19.47-1.22.15-1.73-3.68-5.68-7.71a23.29,23.29,0,0,0-11-6.08c-7.2-1.86-13.48.38-16.22,1.22-11.5,3.52-32.18,4.42-43-4.06C459.8,408,459.75,385,459.72,371.14v-13c0-7.36,0-7.52,0-8.92-.05-10.42-.37-10.06-.4-17.44,0-10.9.65-13.41-1.62-16.63-1.44-2-2-1.47-6.49-5.27s-4.71-5.12-9.74-10.14c-7-7.05-9-6.86-10.54-10.55-1.33-3.17-.65-5.11,0-11.76C432.55,260.77,430.32,252.09,433.86,250.82Z" transform="translate(-96.79 -2.29)"/><path class="cls-14" d="M445.51,287.13A62.56,62.56,0,0,0,455,308.81" transform="translate(-96.79 -2.29)"/><path class="cls-14" d="M469,276.44a38.13,38.13,0,0,0-4.27,8.25c-1.29,3.45-1.74,6.23-2.45,11.6-.56,4.35-1.22,9.82-1.83,16.19" transform="translate(-96.79 -2.29)"/><path class="cls-14" d="M477.58,335.69c1,3.08,2.45,7.43,4.58,12.52,3.37,8.1,6.32,15.18,11.6,22a60.05,60.05,0,0,0,20.16,16.5" transform="translate(-96.79 -2.29)"/><path class="cls-14" d="M490.1,285.3a10.15,10.15,0,0,0,0,7.33c1.62,3.67,5.53,4.93,9.16,6.11a30.55,30.55,0,0,0,13.74.91,39.75,39.75,0,0,0,10.39-2.75" transform="translate(-96.79 -2.29)"/><path class="cls-14" d="M535,310.34a31.76,31.76,0,0,0-3,5.8c-2.75,6.9-3.88,17-.92,24.74a21,21,0,0,1,1.84,7.64,27.54,27.54,0,0,1-.31,5.19c-.48,2.52-1.21,3.68-.61,4.89a4.17,4.17,0,0,0,3,1.83" transform="translate(-96.79 -2.29)"/><path class="cls-14" d="M521,329.28a45.23,45.23,0,0,0,.91,5.8c.88,4,1.54,6.79,3.67,9.47a14.87,14.87,0,0,0,4.27,3.66" transform="translate(-96.79 -2.29)"/><path class="cls-5" d="M537.35,359.4c-.86,1.08-1.05,2.2-1.36,4.08-.45,2.75,0,4.33,1,10.27,1.54,9.16.44,4.85,1.17,8.73.49,2.63,1,4.82-.2,6.21a4.46,4.46,0,0,1-2.32,1.16,19.34,19.34,0,0,1-5.63.78c-1.27-.05-2.35.12-10.08,2.91-9.94,3.58-10.55,4.16-16.29,6-7,2.26-9.46,2.46-10.48,2.52-4.05.25-7.95.19-7.95.19-3.86-.05-6.29-.29-7,1-.25.46,0,.56.19,2.91.15,2.09,0,2.49.2,4.07a19,19,0,0,0,.58,2.53c.72,2.6,1.07,3.91,1.55,4.26,1.42,1.07,3.27-.75,8.15-1.16a34.65,34.65,0,0,1,3.68,0h0a34.83,34.83,0,0,0,9.31,0c2.29-.23.21.13,11.25-.31,11.31-.45,19.59-1.07,19.59-1s-7.12.64-7.14.44,7-2.06,15.09-1.6a27.15,27.15,0,0,0,5,0,26,26,0,0,0,7.95-2.33,17.49,17.49,0,0,0,4.46-2.33c3.21-2.71,3.55-7.29,3.69-9.69s1.45-14.09.53-26.38a41.56,41.56,0,0,1-.17-7.37c.24-3.11.68-3.47.29-4.43-1.21-3-7-3.26-13.84-3.52C539.9,356.93,538.12,358.44,537.35,359.4Z" transform="translate(-96.79 -2.29)"/><path class="cls-15" d="M498.85,427.9H404.71a6.22,6.22,0,0,1-3.47-1.39c-.94-.8-2.47-2.64-1.85-3.94.53-1.13,2.64-1.71,4.93-.85,21-.38,101-1.84,109.25-1.77,2.26,0,4.83.2,5,1,.1.54-.92,1.17-1.78,1.69a17.17,17.17,0,0,1-5.28,2c-2.67.64,4-.87-7,1.87Z" transform="translate(-96.79 -2.29)"/><path class="cls-16" d="M484.21,422.72c-7.66-.89-75-.93-82,.13a31.33,31.33,0,0,1-5.73.21c-3-.12-3.79-.51-4.25-.85a5.69,5.69,0,0,1-1.91-4.25q-7.63-31.09-15.28-62.2a3.45,3.45,0,0,1,.42-2.76,3.62,3.62,0,0,1,3-1.49l86.84-.43a7.22,7.22,0,0,1,3.41,1c1.77,1.08,2.51,2.7,3.59,5.15a28.22,28.22,0,0,1,1.91,6.15q6,24.27,12.1,48.52c.62,3.49,1.1,6.31,1.48,8.35a2.29,2.29,0,0,1-.2,1.73C486.81,423.06,484.76,422.78,484.21,422.72Z" transform="translate(-96.79 -2.29)"/><path class="cls-3" d="M395.43,353.66c39,0,53.27.07,56.87.17,2.27.07,3.46.23,6,.11,2.32-.11,4.66.21,7,0a2.86,2.86,0,0,1,2.19.35c.59.47.58,1.14,1.1,2.8a23.6,23.6,0,0,0,.85,2.26c.69,1.89,6.6,24.45,14.21,55.51" transform="translate(-96.79 -2.29)"/><line class="cls-3" x1="387.91" y1="415.39" x2="388.44" y2="417.17"/><rect class="cls-17" x="324.86" y="378.84" width="19.48" height="19.48" rx="9.74"/><path class="cls-3" d="M384.52,353.66h8.38" transform="translate(-96.79 -2.29)"/><path class="cls-3" d="M377.7,353.86l2.53-.2" transform="translate(-96.79 -2.29)"/><path class="cls-5" d="M431.91,254.5c-1.05-2.92-4.06-4.16-4.94-4.78-.48-.33-10.94-7.86-30.7-24.35-15.31-12.77-19.72-15.46-22.84-17a23.82,23.82,0,0,1-4.16-2.55c-4.66-3.62-4.54-6.47-9.26-12.71-2.35-3.11-1.35-1-8.47-8.73-2.14-2.32-3.78-4.18-5.82-4-.73.07-1.81.93-4,2.64-2.94,2.34-3.79,3.46-3.54,4.16a3.35,3.35,0,0,0,1.5,1.51c.53.27.77.21.82.34.13.34-1.33,1-2.58,1.93s-3.22,2.26-3.72,4.51a5.68,5.68,0,0,0,.2,2.85c.48,1.72,1.12,1.66,3.45,5,.57.81,1.8,2.62,3,3.12a5.08,5.08,0,0,0,1.33.36,8.59,8.59,0,0,1,1.06,0,2.46,2.46,0,0,1,1.2.73,26.37,26.37,0,0,0,4,2.86,16.78,16.78,0,0,0,7,2.21,24.69,24.69,0,0,0,2.46.24c5.85.31,16.27,14.28,20.35,19.51,0,0,6.47,8.31,17.52,19.75,4.64,4.81,5.75,5.42,10.15,10,.91.95,2,1.89,3.52,3.27a24.55,24.55,0,0,0,5.78,3.77c2.44,1.34,1.9,1.35,10.06,7,4.18,2.92,4.83,3.52,5.44,3.21.82-.41.59-2,.48-5.25a88.44,88.44,0,0,1,.44-14C432.07,257.13,432.51,256.16,431.91,254.5Z" transform="translate(-96.79 -2.29)"/><path class="cls-3" d="M337,197.18c.92.8,1.69,1.43,2.22,1.86,2.53,2,3,2.35,3.47,3.09a6.2,6.2,0,0,1,.6,4.67" transform="translate(-96.79 -2.29)"/><path class="cls-3" d="M340.05,194.22a19.78,19.78,0,0,1,3.71,3.46A4.61,4.61,0,0,1,345,199.9a4.4,4.4,0,0,1-1,3.22" transform="translate(-96.79 -2.29)"/><path class="cls-3" d="M343.76,191.37l1.48,1.86c1.66,2,1.94,2.31,2.11,2.84s.38,2-1.49,4.33" transform="translate(-96.79 -2.29)"/><path class="cls-3" d="M345,184.32a8.17,8.17,0,0,1-4.47,4.71" transform="translate(-96.79 -2.29)"/><path class="cls-3" d="M352.91,193.1a61.94,61.94,0,0,1-6.55-5.85c-.51-.52-1-1-1.49-1.57" transform="translate(-96.79 -2.29)"/><path class="cls-5" d="M360.58,208.31a13.77,13.77,0,0,1-7.3-3.34,12,12,0,0,1-3.83-5.68c-.55-2-.37-3.87-1.73-4.7a4.66,4.66,0,0,0-1.7-.4c-2.21-.33-2.78.11-4-.22-1.5-.42-2.92-1.72-2.72-2.47.14-.54,1.07-.72,3.21-1,5.38-.69,8.11-1,9.9-.25.57.24,1,.49,3.83,3,2.53,2.2,4.57,4.05,5.94,5.31" transform="translate(-96.79 -2.29)"/></g><g id="Layer_5" data-name="Layer 5"><path class="cls-5" d="M525.76,288.8c1.28,1.9,3,2.11,2.91,3.24-.35,3-13,5.21-23.73,1.67-4.39-1.46-8.82-4-8.64-6.24.07-.83.74-1.19,1.52-3.25a13.2,13.2,0,0,0,.91-3.92c.06-3.81-2.12-5.36-2.16-7-.15-6.16,29.61-15.53,33.82-8.53C533.51,270,521,281.69,525.76,288.8Z" transform="translate(-96.79 -2.29)"/><path class="cls-5" d="M525.76,288.8a29.58,29.58,0,0,1-1.56-5.22,34.48,34.48,0,0,1-.19-10.8c1.79-11.6,14.94-18.08,14-26.33-.28-2.44-5.25-6.34-15.2-14.14,0,0-12.24-9.61-23.17-11.44a5.56,5.56,0,0,0-6.92,3.76c-2.5,5.61-2.13,12.27-2.11,12.64.11,1.74.34,3-.45,4.22-.66,1-1.51,1.28-3.91,2.4-4.08,1.91-6.13,2.88-6.17,4.07s1.65,2.21,2,2.4c1.47.92,2.41.44,2.85,1.21s-.23,1.24-.6,3.91a13.14,13.14,0,0,0-.15,1.65,21.06,21.06,0,0,0,.45,3.31c.12,1.14-.17,1.15-.48,3.43a29.27,29.27,0,0,0-.14,5.43c.08,2.49.28,2.91.62,3.18.62.49,1.28.18,3.16.3a19,19,0,0,1,2.86.45,28,28,0,0,0,8.13-.15c4.37-.53,6.59-.83,8.12-2.4a7.08,7.08,0,0,0,1.66-2.86" transform="translate(-96.79 -2.29)"/><path class="cls-3" d="M494.36,258.94a7.48,7.48,0,0,1-1.65.75,9.25,9.25,0,0,1-5.53-.18,11.55,11.55,0,0,1-2.14-.87" transform="translate(-96.79 -2.29)"/><path class="cls-18" d="M514.39,250.64c-1.38-.29-2.16-1.77-3.35-4-1.83-3.46-1.48-5.22-2.3-7.35-2.13-5.46-8.41-3.93-12.85-9.67-2.52-3.26-4.13-8.45-2.45-13,2.18-6,9.13-8.58,10.76-9.12l.78-.25c12.15-3.68,28.57,3,37.55,14.28,0,0,12.2,15.29,9.91,47.73-.35,4.9.4,9.83.14,14.72a11.86,11.86,0,0,0,.79,6.05c1.74,3.79,5.24,4.34,5,6-.24,2-5.22,3.92-9.21,2.57s-5.42-5.31-5.95-6.7a11,11,0,0,1-.77-5.54c.12,0-.42,4.29,2,8,3.21,4.94,8.74,5.29,8.49,6.61-.29,1.52-8.06,3-12.15-.79a9.85,9.85,0,0,1-2.49-4.31,20.46,20.46,0,0,1-.72-10.25,14.25,14.25,0,0,0-.56,10c2.22,6.66,10.08,8.07,9.49,10.23-.3,1.08-2.31,1-14.59,1.65a17,17,0,0,1-7.26-1c-1.37-.52-8.42-3.2-10.81-9.64-1-2.78-.5-6.73.33-14.66.75-7.26,1.48-7.34,1.15-10.89-.4-4.25-1.74-7.47-.05-9,1.05-.93,2-.08,4.33-.93,2.86-1.05,4.41-3.4,5.44-4.95,1.33-2,2.64-4,2.33-6.65-.22-1.93-1.39-5-3.44-5.4C520.53,243.86,517.81,251.36,514.39,250.64Z" transform="translate(-96.79 -2.29)"/><path class="cls-18" d="M516.93,262.63c-2,.44-1.17,5.58-4.5,17.62-4.09,14.8-8,16.48-9.8,16.7-1.42.17-3-.37-3.15.08-.24.65,2.71,2.44,5.09,3.5,1.76.78,6.57,2.91,10.56,2,7.47-1.69,11.77-13.94,10.75-23.62C525,270.2,519.6,262.05,516.93,262.63Z" transform="translate(-96.79 -2.29)"/><path class="cls-18" d="M495.25,238.69c.63.21,0,4.28,0,4.28s-.88,2.45-1.43,2.39-.8-1.76-.52-3.34C493.63,240.18,494.81,238.54,495.25,238.69Z" transform="translate(-96.79 -2.29)"/><line class="cls-3" x1="421.45" y1="243.29" x2="396.39" y2="239.11"/><ellipse class="cls-3" cx="489.7" cy="240.81" rx="5.27" ry="3.53" transform="matrix(0.17, -0.99, 0.99, 0.17, 72.04, 679.91)"/><path class="cls-3" d="M499.21,233.23a7.82,7.82,0,0,0-4.61-2.38,6.49,6.49,0,0,0-1.59,0" transform="translate(-96.79 -2.29)"/></g></svg>