<svg width="515" height="482" viewBox="0 0 515 482" fill="none" xmlns="http://www.w3.org/2000/svg">
<defs>
        <style type="text/css"><![CDATA[
            #gear-1{
                animation: movegear1 5s linear infinite;
                transform-box: fill-box;
                transform-origin: 50% 50%;
            }
            @keyframes movegear1 {                    
                0% { transform: rotate(0deg); }
                100% { transform: rotate(360deg); }
            }  

            #gear-2{
                animation: movegear2 3s linear infinite;
                transform-box: fill-box;
                transform-origin: 50% 50%;
            }
            @keyframes movegear2 {                    
                0% { transform: rotate(0deg); }
                100% { transform: rotate(360deg); }
            } 

            #gear-3{
                animation: movegear3 4s linear infinite;
                transform-box: fill-box;
                transform-origin: 50% 50%;
            }
            @keyframes movegear3 {                    
                0% { transform: rotate(0deg); }
                100% { transform: rotate(360deg); }
            } 

            #menu-bar{
                animation: movemenu 3s infinite;
                transform-box: fill-box;
                transform-origin: 50% 50%;
            }
            @keyframes movemenu {                    
                50% { transform: translate(10%, 0); }
            } 

            #cloud-1{
                animation: movecloud 2s infinite;
                transform-box: fill-box;
            }
            #cloud-2{
                animation: movecloud 3s infinite;
                transform-box: fill-box;
            }
            @keyframes movecloud {                    
                50% { transform: scale(1, 1.15); }
            } 
    ]]>
    </style>
</defs>
<g id="Group 26">
<g id="Layer 2">
<path id="Vector" d="M242.946 461.025C370.119 461.025 473.214 357.821 473.214 230.512C473.214 103.204 370.119 0 242.946 0C115.772 0 12.6771 103.204 12.6771 230.512C12.6771 357.821 115.772 461.025 242.946 461.025Z" fill="#E6E6FA"/>
<path id="Vector_2" d="M0 461.034H515" stroke="black" stroke-width="2" stroke-miterlimit="10"/>
</g>
<g id="gear-1">
<path id="Vector_3" d="M291.196 72.5877C291.943 69.1713 292.297 65.6805 292.251 62.1835C292.203 58.6662 291.755 55.1658 290.915 51.7501L279.874 51.9729C278.944 48.2651 277.519 44.7001 275.635 41.3749L283.145 34.2062C281.353 31.1958 279.223 28.4005 276.796 25.875C274.364 23.3372 271.646 21.0908 268.697 19.181L261.293 26.4078C257.271 23.8814 252.846 22.063 248.21 21.0313L248.297 11.092C244.897 10.2894 241.417 9.87665 237.923 9.86167C234.41 9.8404 230.906 10.2273 227.481 11.0145C227.481 14.5213 227.481 18.0379 227.481 21.5447C223.222 22.7294 219.173 24.5728 215.482 27.0084L207.914 19.801C202.06 23.6985 197.177 28.8884 193.64 34.9715L201.556 42.3436C199.975 45.3258 198.757 48.4871 197.927 51.7598L186.847 51.4982C185.132 58.3237 185 65.4513 186.46 72.3359L197.811 72.4812C198.609 75.7591 199.795 78.9299 201.343 81.9264L192.373 89.6764C194.016 92.7613 196.003 95.6504 198.295 98.2885C200.597 100.938 203.194 103.314 206.037 105.37L215.066 97.3876C218.91 100.007 223.161 101.971 227.646 103.2L227.356 115.435C234.174 117.152 241.294 117.284 248.171 115.823C248.223 111.767 248.274 107.701 248.326 103.626C252.825 102.594 257.121 100.823 261.042 98.3854L269.926 106.755C275.763 102.833 280.62 97.6191 284.122 91.517L275.461 83.5248C277.433 80.1368 278.919 76.4875 279.874 72.6846L291.196 72.5877Z" fill="#D8FFC6" stroke="black" stroke-miterlimit="10"/>
<path id="Vector_4" d="M238.862 88.5914C252.816 88.5914 264.129 77.2669 264.129 63.2975C264.129 49.3281 252.816 38.0037 238.862 38.0037C224.907 38.0037 213.595 49.3281 213.595 63.2975C213.595 77.2669 224.907 88.5914 238.862 88.5914Z" fill="white" stroke="black" stroke-miterlimit="10"/>
</g>
<path id="Vector_5" d="M343.637 91.6333H23.4575V319.007H343.637V91.6333Z" fill="white" stroke="black" stroke-miterlimit="10"/>
<g id="menu-bar">
<path id="Vector_6" d="M315.718 67.5405H22.964C17.1759 67.5405 12.4836 72.2377 12.4836 78.032C12.4836 83.8263 17.1759 88.5235 22.964 88.5235H315.718C321.506 88.5235 326.198 83.8263 326.198 78.032C326.198 72.2377 321.506 67.5405 315.718 67.5405Z" fill="#D8FFC6" stroke="black" stroke-miterlimit="10"/>
</g>
<path id="Vector_7" d="M226.765 113.246H129.471V172.717H226.765V113.246Z" fill="#D8FFC6" stroke="black" stroke-miterlimit="10"/>
<path id="Vector_8" d="M231.923 107.211H121.72V179.615H231.923V107.211Z" stroke="black" stroke-miterlimit="10"/>
<path id="Vector_9" d="M200.279 287.348H175.157C171.945 287.348 169.341 289.953 169.341 293.165C169.341 296.378 171.945 298.983 175.157 298.983H200.279C203.491 298.983 206.095 296.378 206.095 293.165C206.095 289.953 203.491 287.348 200.279 287.348Z" fill="#D8FFC6" stroke="black" stroke-miterlimit="10"/>
<path id="Vector_10" d="M247.242 287.348H222.12C218.908 287.348 216.304 289.953 216.304 293.165C216.304 296.378 218.908 298.983 222.12 298.983H247.242C250.454 298.983 253.058 296.378 253.058 293.165C253.058 289.953 250.454 287.348 247.242 287.348Z" fill="#D8FFC6" stroke="black" stroke-miterlimit="10"/>
<path id="Vector_11" d="M262.068 280.025H308.77" stroke="black" stroke-width="2" stroke-miterlimit="10"/>
<path id="Vector_12" d="M262.068 287.348H308.77" stroke="black" stroke-width="2" stroke-miterlimit="10"/>
<path id="Vector_13" d="M262.068 294.672H293.064" stroke="black" stroke-width="2" stroke-miterlimit="10"/>
<path id="Vector_14" d="M216.295 124.445H139.593V157.847H216.295V124.445Z" fill="white" stroke="black" stroke-miterlimit="10"/>
<path id="Vector_15" d="M310.318 83.4667C313.316 83.4667 315.747 81.0335 315.747 78.0321C315.747 75.0306 313.316 72.5974 310.318 72.5974C307.32 72.5974 304.889 75.0306 304.889 78.0321C304.889 81.0335 307.32 83.4667 310.318 83.4667Z" fill="white" stroke="black" stroke-miterlimit="10"/>
<path id="Vector_16" d="M327.989 83.4667C330.987 83.4667 333.418 81.0335 333.418 78.0321C333.418 75.0306 330.987 72.5974 327.989 72.5974C324.99 72.5974 322.56 75.0306 322.56 78.0321C322.56 81.0335 324.99 83.4667 327.989 83.4667Z" fill="white" stroke="black" stroke-miterlimit="10"/>
<path id="Vector_17" d="M345.398 83.4667C348.396 83.4667 350.827 81.0335 350.827 78.0321C350.827 75.0306 348.396 72.5974 345.398 72.5974C342.4 72.5974 339.969 75.0306 339.969 78.0321C339.969 81.0335 342.4 83.4667 345.398 83.4667Z" fill="white" stroke="black" stroke-miterlimit="10"/>
<path id="Vector_18" d="M154.399 146.58C157.398 146.58 159.828 144.147 159.828 141.146C159.828 138.144 157.398 135.711 154.399 135.711C151.401 135.711 148.97 138.144 148.97 141.146C148.97 144.147 151.401 146.58 154.399 146.58Z" fill="#D8FFC6" stroke="black" stroke-miterlimit="10"/>
<path id="Vector_19" d="M178.118 146.58C181.116 146.58 183.547 144.147 183.547 141.146C183.547 138.144 181.116 135.711 178.118 135.711C175.12 135.711 172.689 138.144 172.689 141.146C172.689 144.147 175.12 146.58 178.118 146.58Z" fill="#D8FFC6" stroke="black" stroke-miterlimit="10"/>
<path id="Vector_20" d="M200.579 146.58C203.577 146.58 206.008 144.147 206.008 141.146C206.008 138.144 203.577 135.711 200.579 135.711C197.581 135.711 195.15 138.144 195.15 141.146C195.15 144.147 197.581 146.58 200.579 146.58Z" fill="#D8FFC6" stroke="black" stroke-miterlimit="10"/>
<path id="Vector_21" d="M45.5892 233.825L136.864 233.69" stroke="black" stroke-width="2" stroke-miterlimit="10"/>
<path id="Vector_22" d="M45.5989 242.408L136.874 242.273" stroke="black" stroke-width="2" stroke-miterlimit="10"/>
<path id="Vector_23" d="M46.3344 251.079L106.904 250.991" stroke="black" stroke-width="2" stroke-miterlimit="10"/>
<path id="Vector_24" d="M154.603 3.76832H95.8815C94.4981 3.77344 93.1729 4.32653 92.1955 5.30674C91.2181 6.28696 90.6681 7.61459 90.6655 8.99953V33.625C90.6681 35.0099 91.2181 36.3375 92.1955 37.3178C93.1729 38.298 94.4981 38.8511 95.8815 38.8562H120.442L124.071 50.0936C125.078 46.3736 126.09 42.6504 127.11 38.924H154.632C156.015 38.9189 157.34 38.3658 158.318 37.3856C159.295 36.4054 159.845 35.0777 159.848 33.6928V8.99953C159.846 8.31128 159.71 7.63003 159.445 6.99466C159.181 6.35929 158.794 5.78225 158.307 5.29649C157.82 4.81073 157.243 4.42575 156.607 4.16355C155.971 3.90135 155.29 3.76705 154.603 3.76832Z" fill="#FFD0FF" stroke="black" stroke-miterlimit="10"/>
<g id="gear-2">
<path id="Vector_25" d="M80.9401 147.433C81.2574 145.953 81.4099 144.442 81.3949 142.928C81.372 141.41 81.1772 139.898 80.8143 138.424L76.0434 138.52C75.6443 136.917 75.029 135.376 74.2144 133.938L77.4563 130.838C76.6811 129.541 75.7624 128.336 74.7176 127.244C73.6681 126.141 72.4923 125.166 71.2145 124.338L68.021 127.457C66.2782 126.365 64.3646 125.572 62.3599 125.113C62.3599 123.689 62.3599 122.207 62.3599 120.822C59.4022 120.137 56.3275 120.137 53.3698 120.822V125.375C51.531 125.886 49.784 126.684 48.1925 127.738L44.9216 124.629C43.66 125.458 42.5004 126.434 41.4669 127.535C40.4257 128.639 39.5134 129.857 38.7476 131.168L42.2023 134.374C41.5182 135.662 40.9919 137.029 40.6346 138.443L35.8444 138.336C35.0995 141.284 35.0432 144.363 35.6799 147.336L40.5766 147.404C40.9262 148.82 41.4427 150.189 42.1152 151.482L38.2444 154.834C38.9522 156.17 39.8093 157.421 40.7991 158.564C41.8007 159.707 42.927 160.733 44.1571 161.625L48.028 158.167C49.694 159.295 51.5349 160.139 53.4762 160.666C53.4762 162.429 53.3891 164.192 53.3504 165.955C56.2947 166.701 59.371 166.757 62.3405 166.12C62.3405 164.367 62.3889 162.613 62.4083 160.85C64.365 160.408 66.2353 159.645 67.9436 158.593L71.8145 162.216C74.3394 160.52 76.4417 158.266 77.9595 155.628L74.2144 152.18C75.0531 150.721 75.6849 149.153 76.0918 147.52L80.9401 147.433Z" fill="#D8FFC6" stroke="black" stroke-miterlimit="10"/>
<path id="Vector_26" d="M58.3243 154.34C64.353 154.34 69.2402 149.448 69.2402 143.413C69.2402 137.377 64.353 132.485 58.3243 132.485C52.2956 132.485 47.4084 137.377 47.4084 143.413C47.4084 149.448 52.2956 154.34 58.3243 154.34Z" fill="white" stroke="black" stroke-miterlimit="10"/>
</g>
<g id="gear-3">
<path id="Vector_27" d="M110.726 166.255C111.168 164.173 111.139 162.018 110.639 159.949L107.301 160.017C107.019 158.894 106.586 157.815 106.013 156.81L108.288 154.64C107.736 153.733 107.087 152.888 106.352 152.121C105.615 151.359 104.794 150.683 103.904 150.106L101.668 152.286C100.452 151.519 99.1133 150.965 97.7104 150.649V147.646C96.6795 147.403 95.6245 147.276 94.5654 147.268C93.5042 147.269 92.4463 147.385 91.4106 147.617C91.4106 148.682 91.4106 149.748 91.4106 150.804C90.1216 151.162 88.8969 151.721 87.7817 152.461L85.4882 150.281C83.7106 151.452 82.2323 153.025 81.1722 154.873L83.5624 157.091C83.0814 157.993 82.711 158.949 82.4592 159.939L79.1109 159.862C78.5953 161.925 78.5556 164.078 78.9948 166.159L82.4302 166.207C82.6702 167.199 83.0276 168.158 83.4947 169.065L80.7851 171.409C81.2761 172.346 81.8771 173.221 82.5753 174.015C83.2729 174.818 84.0622 175.537 84.9269 176.156L87.6559 173.744C88.8186 174.531 90.1038 175.121 91.459 175.488L91.3719 179.188C92.3974 179.45 93.4493 179.593 94.5073 179.614C95.5706 179.634 96.6325 179.53 97.6717 179.304C97.6717 178.084 97.6717 176.853 97.6717 175.623C99.041 175.312 100.349 174.775 101.543 174.034L104.233 176.563C105.108 175.976 105.914 175.29 106.633 174.519C107.369 173.74 108.018 172.882 108.568 171.961L105.946 169.539C106.532 168.52 106.975 167.425 107.262 166.284L110.726 166.255Z" fill="#D8FFC6" stroke="black" stroke-miterlimit="10"/>
<path id="Vector_28" d="M94.8945 171.09C99.1167 171.09 102.539 167.663 102.539 163.437C102.539 159.21 99.1167 155.783 94.8945 155.783C90.6723 155.783 87.2495 159.21 87.2495 163.437C87.2495 167.663 90.6723 171.09 94.8945 171.09Z" fill="white" stroke="black" stroke-miterlimit="10"/>
</g>
<path id="Vector_29" d="M98.2524 203.746H80.9012V222.849H92.1364C92.433 222.355 92.7731 221.888 93.1526 221.454C92.8235 221.755 92.5235 222.016 92.301 222.2L92.0494 216.301L97.5266 217.395C96.7138 218.132 96.046 218.752 95.5331 219.236C96.4785 218.515 97.3831 217.742 98.2427 216.921L98.2524 203.746Z" fill="white" stroke="black" stroke-miterlimit="10"/>
<path id="Vector_30" d="M93.1624 221.454L93.9559 220.738C94.4881 220.244 94.8075 219.943 95.2526 219.507L95.5429 219.236C94.6899 219.909 93.8936 220.651 93.1624 221.454Z" fill="white" stroke="black" stroke-miterlimit="10"/>
<path id="Vector_31" d="M286.232 110.756H268.88V129.86H280.125C280.425 129.365 280.768 128.899 281.151 128.465C280.812 128.765 280.522 129.027 280.29 129.211L280.038 123.311L285.525 124.406C284.703 125.142 284.035 125.762 283.532 126.247C284.472 125.523 285.373 124.75 286.232 123.931V110.756Z" fill="white" stroke="black" stroke-miterlimit="10"/>
<path id="Vector_32" d="M281.151 128.465L281.945 127.748C282.477 127.254 282.787 126.954 283.241 126.518L283.532 126.246C282.674 126.914 281.878 127.656 281.151 128.465Z" fill="white" stroke="black" stroke-miterlimit="10"/>
<path id="Vector_33" d="M29.8347 277.796H12.4739V296.91H23.7188C24.0172 296.414 24.3606 295.947 24.7445 295.515L23.8929 296.261L23.6317 290.351L29.1186 291.456C28.2961 292.192 27.638 292.812 27.1251 293.296C28.0928 292.531 29.0606 291.795 29.8347 290.981V277.796Z" fill="white" stroke="black" stroke-miterlimit="10"/>
<path id="Vector_34" d="M24.7446 295.515L25.5382 294.798C26.0704 294.304 26.3897 293.994 26.8349 293.568L27.1252 293.296C26.2655 293.961 25.4687 294.704 24.7446 295.515Z" fill="white" stroke="black" stroke-miterlimit="10"/>
<path id="Vector_35" d="M132.055 301.569H63.6082V345.095H132.055V301.569Z" fill="#050505" stroke="black" stroke-miterlimit="10"/>
<path id="Vector_36" d="M131.503 301.569H64.1598C63.8551 301.569 63.6082 301.817 63.6082 302.122V312.652C63.6082 312.957 63.8551 313.204 64.1598 313.204H131.503C131.808 313.204 132.055 312.957 132.055 312.652V302.122C132.055 301.817 131.808 301.569 131.503 301.569Z" fill="#D8FFC6" stroke="black" stroke-miterlimit="10"/>
<path id="Vector_37" d="M70.0242 320.111L117.365 319.898" stroke="white" stroke-miterlimit="10"/>
<path id="Vector_38" d="M70.0531 327.609L117.394 327.406" stroke="white" stroke-miterlimit="10"/>
<path id="Vector_39" d="M70.6919 335.02L98.2525 334.904" stroke="white" stroke-miterlimit="10"/>
<path id="Vector_40" d="M379.626 134.025H311.179V177.551H379.626V134.025Z" fill="#050505" stroke="black" stroke-miterlimit="10"/>
<path id="Vector_41" d="M379.075 134.025H311.731C311.426 134.025 311.179 134.273 311.179 134.578V145.108C311.179 145.413 311.426 145.66 311.731 145.66H379.075C379.379 145.66 379.626 145.413 379.626 145.108V134.578C379.626 134.273 379.379 134.025 379.075 134.025Z" fill="#D8FFC6" stroke="black" stroke-miterlimit="10"/>
<path id="Vector_42" d="M317.595 152.567L364.936 152.354" stroke="white" stroke-miterlimit="10"/>
<path id="Vector_43" d="M317.624 160.065L364.965 159.862" stroke="white" stroke-miterlimit="10"/>
<path id="Vector_44" d="M318.263 167.476L345.824 167.36" stroke="white" stroke-miterlimit="10"/>
<g id="cloud-1">
<path id="Vector_45" d="M386.323 110.747C383.724 109.668 381.625 107.652 380.439 105.099C378.136 99.8677 381.223 94.9658 381.658 94.2974C382.258 93.3868 384.61 89.7927 388.2 89.3374C389.468 89.1824 390.561 89.4537 391.471 88.6496C392.526 87.6809 392.381 86.1406 392.439 84.9587C392.68 81.0256 395.593 78.1194 397.093 76.6178C400.118 73.6397 404.138 71.8898 408.377 71.7063C409.345 71.7063 410.312 71.7063 411.28 71.7063C413.428 71.7063 413.999 71.8807 414.474 71.4544C415.141 70.8538 414.783 69.9141 414.967 68.2673C415.246 66.8097 415.742 65.4022 416.438 64.092C418.127 60.9733 420.434 58.2324 423.218 56.037C426.002 53.8417 429.204 52.2379 432.628 51.324C444.24 48.3402 453.434 54.8889 454.701 55.9836C455.571 56.6902 456.334 57.519 456.966 58.4442C457.866 59.9652 457.701 60.8273 458.437 61.3505C459.705 62.3192 462.027 61.2051 462.85 60.8564C468.656 58.4539 476.543 62.5323 478.062 63.317C486.772 67.8313 489.384 76.9472 489.839 78.536C490.894 82.2656 492.026 86.2859 490.081 89.0952C489.539 89.8896 488.494 91.0327 488.852 91.798C489.21 92.5633 491.068 92.1274 492.53 93.0283C494.978 94.5493 494.784 99.3349 494.252 101.863C493.972 103.181 493.023 107.676 488.852 109.729C486.791 110.712 484.459 110.972 482.233 110.466L386.323 110.747Z" fill="white" stroke="black" stroke-miterlimit="10"/>
</g>
<path id="Vector_46" d="M438.55 93.6289V96.5351" stroke="black" stroke-miterlimit="10"/>
<path id="Vector_47" d="M438.55 102.309V134.055" stroke="black" stroke-miterlimit="10" stroke-dasharray="5.96 5.96"/>
<path id="Vector_48" d="M438.55 136.941V139.848" stroke="black" stroke-miterlimit="10"/>
<path id="Vector_49" d="M438.579 87.7874C437.504 90.7806 435.948 93.5782 433.973 96.0701L438.579 94.4038L443.176 96.0701C441.204 93.5777 439.652 90.7801 438.579 87.7874Z" fill="black"/>
<g id="cloud-2">
<path id="Vector_50" d="M103.633 410.359C101.031 409.282 98.9283 407.266 97.7394 404.711C95.4363 399.48 98.533 394.569 98.9684 393.9C99.5684 392.99 101.872 389.396 105.501 388.95C106.778 388.785 107.871 389.066 108.781 388.262C109.836 387.293 109.691 385.753 109.749 384.571C110 380.638 112.913 377.722 114.413 376.221C117.441 373.248 121.46 371.502 125.697 371.319C126.665 371.319 127.632 371.319 128.6 371.319C130.748 371.367 131.31 371.493 131.784 371.067C132.461 370.466 132.103 369.517 132.277 367.88C132.562 366.424 133.058 365.017 133.748 363.705C135.441 360.589 137.749 357.85 140.532 355.655C143.316 353.46 146.516 351.855 149.938 350.937C161.551 347.953 170.754 354.501 172.012 355.596C172.867 356.303 173.614 357.132 174.228 358.057C175.118 359.568 174.954 360.44 175.699 360.963C176.957 361.932 179.289 360.818 180.112 360.469C185.918 358.066 193.805 362.145 195.314 362.93C204.024 367.434 206.637 376.55 207.092 378.149C208.156 381.878 209.288 385.898 207.333 388.708C206.792 389.502 205.746 390.597 206.114 391.411C206.482 392.224 208.33 391.73 209.791 392.641C212.24 394.152 212.046 398.938 211.504 401.476C211.233 402.784 210.285 407.288 206.114 409.332C204.052 410.325 201.714 410.585 199.485 410.069L103.633 410.359Z" fill="white" stroke="black" stroke-miterlimit="10"/>
</g>
<path id="Vector_51" d="M159.828 430.538V427.632" stroke="black" stroke-miterlimit="10"/>
<path id="Vector_52" d="M159.828 421.868V390.122" stroke="black" stroke-miterlimit="10" stroke-dasharray="5.96 5.96"/>
<path id="Vector_53" d="M159.828 387.235V384.329" stroke="black" stroke-miterlimit="10"/>
<path id="Vector_54" d="M159.819 436.389C160.894 433.399 162.45 430.605 164.425 428.116L159.819 429.782L155.222 428.116C157.194 430.605 158.746 433.4 159.819 436.389Z" fill="black"/>
<path id="Vector_55" d="M98.3685 21.0603H145.08" stroke="black" stroke-width="2" stroke-miterlimit="10"/>
<path id="Vector_56" d="M98.3685 12.981H145.08" stroke="black" stroke-width="2" stroke-miterlimit="10"/>
<path id="Vector_57" d="M98.3685 29.1396H129.365" stroke="black" stroke-width="2" stroke-miterlimit="10"/>
<g id="Layer 4">
<path id="Vector_58" d="M383.864 457.285C388.719 458.256 393.663 458.71 398.613 458.641C410.303 458.477 415.596 455.386 422.651 458.448C423.87 458.971 428.205 460.85 429.009 464.26C429.889 468.029 425.922 471.293 425.012 472.01C422.593 473.948 420.125 474.674 408.125 476.457C401.912 477.425 398.148 477.939 391.151 478.714C385.993 479.295 381.677 479.683 378.571 479.973L366.339 466.353L383.864 457.285Z" fill="white" stroke="black" stroke-width="2" stroke-miterlimit="10"/>
<path id="Vector_59" d="M381.484 454.243C386.37 454.973 391.294 455.426 396.232 455.6C404.119 455.861 410.651 455.348 419.525 457.537C424.102 458.671 425.97 459.697 426.628 461.218C428.07 464.541 423.086 468.62 422.631 468.968C420.212 470.906 417.793 471.632 405.745 473.415C399.532 474.384 395.767 474.897 388.771 475.682C383.613 476.253 379.297 476.65 376.19 476.931L362.623 464.716L381.484 454.243Z" fill="#252444" stroke="black" stroke-width="2" stroke-miterlimit="10"/>
<path id="Vector_60" d="M407.409 473.192C407.148 473.066 406.993 472.872 406.441 471.516C406.129 470.766 405.867 469.996 405.657 469.211C405.481 468.39 405.416 467.549 405.464 466.711C405.561 465.356 405.94 464.036 406.577 462.836C407.167 461.76 407.917 460.78 408.802 459.93C410.544 458.138 411.328 458.186 412.848 456.791C413.04 456.592 413.28 456.445 413.544 456.365C414.144 456.2 414.628 456.442 415.664 456.704C416.206 456.84 415.915 456.704 417.26 457.004C418.9 457.284 420.517 457.682 422.099 458.196C423.231 458.581 424.306 459.119 425.292 459.794C425.76 460.07 426.16 460.448 426.463 460.899C426.858 461.584 426.983 462.393 426.812 463.166C426.656 464.033 426.302 464.852 425.776 465.558C425.365 466.189 424.895 466.779 424.373 467.321C423.316 468.51 422.05 469.495 420.638 470.228C419.657 470.686 418.633 471.043 417.58 471.293C415.96 471.718 414.319 472.057 412.664 472.31C409.973 472.785 410.37 472.601 409.577 472.824C408.474 473.153 407.941 473.434 407.409 473.192Z" fill="white" stroke="black" stroke-width="2" stroke-miterlimit="10"/>
<path id="Vector_61" d="M380.735 471.494C381.039 470.104 379.504 468.586 377.306 468.105C375.108 467.623 373.079 468.359 372.775 469.75C372.471 471.14 374.006 472.657 376.204 473.139C378.402 473.621 380.431 472.884 380.735 471.494Z" fill="white" stroke="black" stroke-miterlimit="10"/>
<path id="Vector_62" d="M400.074 465.326C400.017 464.421 400.075 463.513 400.248 462.623C400.894 459.887 402.467 457.46 404.699 455.755" stroke="white" stroke-width="2" stroke-miterlimit="10"/>
<path id="Vector_63" d="M395.613 465.18C395.546 464.273 395.605 463.36 395.787 462.468C396.426 459.732 397.997 457.304 400.229 455.6" stroke="white" stroke-width="2" stroke-miterlimit="10"/>
<path id="Vector_64" d="M391.161 464.628C391.095 463.724 391.153 462.814 391.335 461.926C391.976 459.187 393.546 456.756 395.777 455.047" stroke="white" stroke-width="2" stroke-miterlimit="10"/>
<path id="Vector_65" d="M385.626 464.396C385.569 463.491 385.627 462.583 385.8 461.693C386.444 458.954 388.017 456.523 390.251 454.815" stroke="white" stroke-width="2" stroke-miterlimit="10"/>
<path id="Vector_66" d="M379.848 463.679C379.791 462.774 379.85 461.866 380.023 460.976C380.666 458.239 382.24 455.812 384.474 454.108" stroke="white" stroke-width="2" stroke-miterlimit="10"/>
<path id="Vector_67" d="M314.479 453.41C309.637 453.819 304.764 453.643 299.963 452.887C288.573 451.066 283.764 446.842 276.525 449.303C275.267 449.729 270.816 451.24 269.635 454.989C268.329 459.126 271.812 463.359 272.616 464.299C274.745 466.818 277.067 467.98 288.564 471.671C294.525 473.609 298.134 474.732 304.879 476.583C309.834 477.949 314.005 479.005 316.976 479.741C321.492 475.22 326.008 470.673 330.524 466.101L314.479 453.41Z" fill="white" stroke="black" stroke-width="2" stroke-miterlimit="10"/>
<path id="Vector_68" d="M317.15 450.31C312.305 450.452 307.456 450.274 302.634 449.777C294.892 448.983 288.593 447.491 279.67 448.731C275.074 449.361 273.129 450.262 272.306 451.889C270.506 455.425 274.89 460.724 275.287 461.189C277.416 463.708 279.738 464.88 291.244 468.561C297.205 470.499 300.805 471.623 307.55 473.473C312.515 474.839 316.676 475.905 319.647 476.641L334.337 464.716L317.15 450.31Z" fill="#252444" stroke="black" stroke-width="2" stroke-miterlimit="10"/>
<path id="Vector_69" d="M289.628 468.058C289.889 467.951 290.064 467.748 290.731 466.295C291.134 465.493 291.48 464.664 291.767 463.815C292.039 462.904 292.202 461.964 292.251 461.015C292.314 459.497 292.101 457.981 291.622 456.539C291.189 455.256 290.573 454.042 289.793 452.936C288.302 450.678 287.538 450.62 286.222 448.838C286.06 448.596 285.841 448.4 285.583 448.266C285.022 447.995 284.519 448.198 283.473 448.344C282.931 448.421 283.231 448.344 281.886 448.47C280.257 448.554 278.639 448.778 277.048 449.138C275.885 449.414 274.772 449.868 273.748 450.485C273.246 450.746 272.81 451.117 272.47 451.57C271.996 452.316 271.781 453.198 271.861 454.079C271.91 455.068 272.16 456.037 272.596 456.927C272.916 457.684 273.305 458.41 273.757 459.097C274.615 460.555 275.734 461.842 277.057 462.894C277.932 463.541 278.877 464.087 279.873 464.522C281.394 465.223 282.955 465.834 284.548 466.353C287.122 467.273 286.754 467.011 287.509 467.37C288.583 467.864 289.076 468.261 289.628 468.058Z" fill="white" stroke="black" stroke-width="2" stroke-miterlimit="10"/>
<path id="Vector_70" d="M320.243 472.348C322.436 472.05 324.037 470.511 323.821 468.91C323.604 467.309 321.651 466.252 319.458 466.549C317.265 466.847 315.664 468.386 315.881 469.987C316.097 471.588 318.051 472.645 320.243 472.348Z" fill="white" stroke="black" stroke-miterlimit="10"/>
<path id="Vector_71" d="M297.709 460.211C297.874 459.196 297.923 458.166 297.854 457.14C297.591 454.051 296.358 451.124 294.331 448.78" stroke="white" stroke-width="2" stroke-miterlimit="10"/>
<path id="Vector_72" d="M302.131 460.666C302.3 459.649 302.352 458.615 302.286 457.586C302.019 454.496 300.782 451.569 298.754 449.225" stroke="white" stroke-width="2" stroke-miterlimit="10"/>
<path id="Vector_73" d="M306.466 460.666C306.632 459.648 306.681 458.615 306.612 457.585C306.352 454.494 305.122 451.565 303.099 449.216" stroke="white" stroke-width="2" stroke-miterlimit="10"/>
<path id="Vector_74" d="M311.915 461.18C312.084 460.162 312.136 459.128 312.07 458.099C311.802 455.009 310.566 452.083 308.537 449.739" stroke="white" stroke-width="2" stroke-miterlimit="10"/>
<path id="Vector_75" d="M317.614 461.18C317.78 460.162 317.829 459.128 317.76 458.099C317.495 455.01 316.262 452.084 314.237 449.739" stroke="white" stroke-width="2" stroke-miterlimit="10"/>
<path id="Vector_76" d="M411.251 405.322C417.364 405.569 423.309 407.398 428.505 410.631C428.505 410.631 429.028 410.96 429.473 411.289C429.744 411.483 448.421 426.615 443.621 441.117C440.718 449.836 430.847 454.021 425.351 456.355C421.928 457.715 418.404 458.807 414.812 459.62C409.607 460.945 404.326 461.954 399 462.642C393.336 463.364 387.637 463.781 381.929 463.892C371.506 464.344 361.063 463.812 350.74 462.303C339.349 460.54 330.959 457.818 319.018 453.982C312.573 451.909 309.263 450.843 304.695 448.954C290.886 443.239 279.39 438.472 272.287 427.322C270.283 424.174 264.835 415.629 267.071 405.322C268.254 399.874 271.279 395.001 275.635 391.527C282.68 386.189 291.225 386.732 295.376 387.051C320.469 388.989 336.669 394.947 357.959 398.24C363.552 399.103 398.574 404.528 411.251 405.322Z" fill="#FFD0FF" stroke="black" stroke-miterlimit="10"/>
<g id="Vector_77">
<path d="M426.086 411.725C423.47 409.665 420.413 408.24 417.154 407.56C414.028 406.93 410.641 407.008 404.641 408.751C397.374 410.853 392.448 413.595 386.323 416.947C372.774 424.367 379.626 420.434 368.458 426.634C360.455 431.081 352.191 435.014 344.188 439.46C339.427 442.095 337.201 443.423 333.611 443.626C329.672 443.859 327.04 442.551 322.143 443.781C319.831 444.353 317.818 444.866 317.082 446.464C316.202 448.402 318.05 451.163 321.853 456.597C323.898 459.526 326.135 462.316 328.55 464.948C332.905 469.86 334.356 470.654 335.846 471.061C337.008 471.371 339.775 472.117 341.808 470.761C342.645 469.974 343.598 469.32 344.633 468.823C345.448 468.535 346.305 468.385 347.169 468.377C349.649 468.296 352.116 467.971 354.533 467.409C356.333 466.876 356.962 466.353 357.881 466.731C358.975 467.186 358.926 468.251 359.817 468.968C361.413 470.247 364.297 469.065 366.823 468.077C369.978 466.827 373.336 466.062 376.345 464.502C387.261 458.816 403.141 461.955 424.296 454.059C428.233 452.588 432.065 450.846 435.763 448.848" fill="#FFD0FF"/>
<path d="M426.086 411.725C423.47 409.665 420.413 408.24 417.154 407.56C414.028 406.93 410.641 407.008 404.641 408.751C397.374 410.853 392.448 413.595 386.323 416.947C372.774 424.367 379.626 420.434 368.458 426.634C360.455 431.081 352.191 435.014 344.188 439.46C339.427 442.095 337.201 443.423 333.611 443.626C329.672 443.859 327.04 442.551 322.143 443.781C319.831 444.353 317.818 444.866 317.082 446.464C316.202 448.402 318.05 451.163 321.853 456.597C323.898 459.526 326.135 462.316 328.55 464.948C332.905 469.86 334.356 470.654 335.846 471.061C337.008 471.371 339.775 472.117 341.808 470.761C342.645 469.974 343.598 469.32 344.633 468.823C345.448 468.535 346.305 468.385 347.169 468.377C349.649 468.296 352.116 467.971 354.533 467.409C356.333 466.876 356.962 466.353 357.881 466.731C358.975 467.186 358.926 468.251 359.817 468.968C361.413 470.247 364.297 469.065 366.823 468.077C369.978 466.827 373.336 466.062 376.345 464.502C387.261 458.816 403.141 461.955 424.296 454.059C428.233 452.588 432.065 450.846 435.763 448.848" stroke="black" stroke-miterlimit="10"/>
</g>
<path id="Vector_78" d="M436.808 439.16C434.979 445.835 431.002 450.378 426.831 450.485C425.743 450.503 424.668 450.246 423.705 449.739" stroke="black" stroke-miterlimit="10"/>
<path id="Vector_79" d="M344.488 447.501C350.294 449.196 355.307 450.32 359.226 451.085C367.91 452.798 376.728 453.745 385.577 453.914C387.329 453.914 388.771 453.914 389.748 453.914" stroke="black" stroke-miterlimit="10"/>
<path id="Vector_80" d="M395.109 453.769L400.771 453.323" stroke="black" stroke-miterlimit="10"/>
<path id="Vector_81" d="M365.904 410.631C370.936 415.155 373.239 419.717 371.884 421.907C371.615 422.282 371.272 422.598 370.876 422.835C370.479 423.071 370.039 423.224 369.581 423.282" stroke="black" stroke-miterlimit="10"/>
<path id="Vector_82" d="M279.225 426.276C281.303 428.714 283.53 431.021 285.893 433.183C294.7 441.163 305.134 447.132 316.473 450.678" stroke="black" stroke-miterlimit="10"/>
<path id="Vector_83" d="M347.053 419.834C347.621 421.776 347.776 423.815 347.507 425.821C347.349 427.005 347.04 428.164 346.588 429.269" stroke="black" stroke-miterlimit="10"/>
<path id="Vector_84" d="M345.214 415.232L342.456 412.704" stroke="black" stroke-miterlimit="10"/>
<path id="Vector_85" d="M330.04 412.239C331.501 413.537 333.824 415.62 336.708 418.226C341.798 422.827 342.514 423.573 343.143 425.133C344.111 427.69 343.733 429.696 345.214 430.422C346.404 431.013 347.391 430.035 349.346 430.422C350.688 430.728 351.898 431.454 352.801 432.495" stroke="black" stroke-miterlimit="10"/>
<path id="Vector_86" d="M326.189 240.762C327.156 240.413 328.124 240.82 330.059 241.614C333.485 243.019 335.082 245.169 337.153 247.233C338.479 248.55 343.743 253.82 350.817 255.554C353.914 256.32 354.349 255.661 357.881 256.736C360.727 257.703 363.473 258.946 366.078 260.447C368.134 261.421 370.117 262.545 372.01 263.808C374.826 265.93 375.378 267.266 377.874 268.167C379.113 268.613 378.91 268.264 382.219 268.913C387.697 269.998 388.364 270.977 388.606 271.51C388.767 271.921 388.843 272.36 388.83 272.801C388.816 273.242 388.714 273.676 388.529 274.077C388.093 275.045 387.406 275.094 386.593 276.266C386.099 276.895 385.79 277.65 385.703 278.446C385.761 280.722 390.822 282.243 391.509 282.437C393.445 283.028 396.348 283.009 401.903 282.95C404.447 282.936 406.985 282.676 409.48 282.175C412.18 281.623 413.254 281.09 413.844 280.122C414.435 279.153 414.27 278.068 415.132 277.554C415.478 277.398 415.854 277.317 416.235 277.317C416.615 277.317 416.991 277.398 417.338 277.554C421.276 278.853 423.241 279.492 423.86 279.831C425.428 280.674 424.286 279.879 432.328 282.921C436.327 284.332 440.229 286.005 444.008 287.93C445.5 288.609 446.901 289.471 448.179 290.497C449.737 291.94 451.266 294.11 452.611 299.622C453.804 304.609 454.293 309.738 454.063 314.861C453.898 318.542 453.627 320.431 453.472 325.643C453.429 327.55 453.494 329.458 453.666 331.358C454.266 338.285 455.476 340.872 454.45 345.502C453.269 350.888 450.26 353.581 447.782 356.895C441.241 365.613 440.544 377.006 439.15 399.723C438.56 409.342 438.618 418.361 436.789 418.584C435.608 418.729 435.115 415.019 431.292 411.115C428.35 408.212 424.668 406.175 420.647 405.225C413.68 403.423 407.603 405.593 404.951 406.407C393.822 409.817 373.81 410.689 363.339 402.474C351.291 393.029 351.243 370.748 351.214 357.321V344.727C351.214 337.597 351.214 337.442 351.214 336.086C351.165 325.992 350.856 326.34 350.827 319.191C350.827 308.632 351.456 306.2 349.259 303.081C347.865 301.143 347.323 301.657 342.978 297.976C338.633 294.294 338.42 293.016 333.553 288.153C326.779 281.323 324.843 281.507 323.353 277.932C322.066 274.861 322.724 272.982 323.353 266.54C324.921 250.401 322.763 241.992 326.189 240.762Z" fill="#191919" stroke="black" stroke-miterlimit="10"/>
<g id="Vector_87">
<path d="M337.462 275.937C339.161 283.459 342.278 290.587 346.646 296.939L337.462 275.937Z" fill="#191919"/>
<path d="M337.462 275.937C339.161 283.459 342.278 290.587 346.646 296.939" stroke="#F9F9F9" stroke-miterlimit="10"/>
</g>
<g id="Vector_88">
<path d="M360.194 265.581C358.496 268.066 357.109 270.75 356.062 273.573C354.814 276.915 354.378 279.608 353.691 284.81C353.149 289.024 352.51 294.323 351.92 300.494" fill="#191919"/>
<path d="M360.194 265.581C358.496 268.066 357.109 270.75 356.062 273.573C354.814 276.915 354.378 279.608 353.691 284.81C353.149 289.024 352.51 294.323 351.92 300.494" stroke="#F9F9F9" stroke-miterlimit="10"/>
</g>
<g id="Vector_89">
<path d="M368.497 322.979C369.465 325.962 370.868 330.177 372.929 335.107C376.19 342.954 379.045 349.813 384.155 356.42C389.411 363.113 396.071 368.569 403.664 372.404" fill="#191919"/>
<path d="M368.497 322.979C369.465 325.962 370.868 330.177 372.929 335.107C376.19 342.954 379.045 349.813 384.155 356.42C389.411 363.113 396.071 368.569 403.664 372.404" stroke="#F9F9F9" stroke-miterlimit="10"/>
</g>
<g id="Vector_90">
<path d="M380.613 274.164C379.729 276.448 379.729 278.98 380.613 281.265C382.181 284.82 385.964 286.041 389.477 287.184C393.785 288.487 398.332 288.788 402.774 288.065C406.23 287.637 409.613 286.741 412.828 285.401" fill="#191919"/>
<path d="M380.613 274.164C379.729 276.448 379.729 278.98 380.613 281.265C382.181 284.82 385.964 286.041 389.477 287.184C393.785 288.487 398.332 288.788 402.774 288.065C406.23 287.637 409.613 286.741 412.828 285.401" stroke="#F9F9F9" stroke-miterlimit="10"/>
</g>
<g id="Vector_91">
<path d="M424.063 298.421C422.905 300.189 421.933 302.072 421.16 304.04C418.499 310.724 417.406 320.508 420.27 328.007C421.323 330.339 421.928 332.85 422.051 335.408C422.109 337.089 422.009 338.773 421.751 340.436C421.286 342.877 420.58 344 421.16 345.173C421.486 345.662 421.915 346.074 422.416 346.38C422.918 346.686 423.48 346.879 424.063 346.945" fill="#191919"/>
<path d="M424.063 298.421C422.905 300.189 421.933 302.072 421.16 304.04C418.499 310.724 417.406 320.508 420.27 328.007C421.323 330.339 421.928 332.85 422.051 335.408C422.109 337.089 422.009 338.773 421.751 340.436C421.286 342.877 420.58 344.001 421.16 345.173C421.486 345.662 421.915 346.074 422.416 346.38C422.918 346.686 423.48 346.879 424.063 346.945" stroke="#F9F9F9" stroke-miterlimit="10"/>
</g>
<g id="Vector_92">
<path d="M410.516 316.769C410.687 318.659 410.981 320.536 411.396 322.388C412.248 326.263 412.886 328.966 414.948 331.562C416.087 332.996 417.49 334.199 419.08 335.107" fill="#191919"/>
<path d="M410.516 316.769C410.687 318.659 410.981 320.536 411.396 322.388C412.248 326.263 412.886 328.966 414.948 331.562C416.087 332.996 417.49 334.199 419.08 335.107" stroke="#F9F9F9" stroke-miterlimit="10"/>
</g>
<path id="Vector_93" d="M426.338 345.948C425.505 346.994 425.321 348.079 425.021 349.9C424.586 352.564 425.021 354.095 425.989 359.849C427.479 368.723 426.415 364.547 427.121 368.306C427.596 370.854 428.089 372.976 426.928 374.322C426.307 374.911 425.526 375.302 424.683 375.446C422.914 375.965 421.078 376.22 419.235 376.201C418.006 376.153 416.96 376.318 409.48 379.02C399.861 382.489 399.271 383.05 393.716 384.833C386.942 387.022 384.561 387.216 383.574 387.274C379.655 387.516 375.881 387.458 375.881 387.458C372.145 387.41 369.794 387.177 369.107 388.427C368.865 388.873 369.107 388.969 369.291 391.246C369.436 393.271 369.291 393.658 369.484 395.189C369.615 396.018 369.803 396.837 370.045 397.64C370.742 400.158 371.081 401.427 371.545 401.767C372.92 402.803 374.71 401.04 379.432 400.643C380.619 400.58 381.807 400.58 382.993 400.643C385.983 401.046 389.013 401.046 392.003 400.643C394.219 400.42 392.206 400.769 402.89 400.342C413.835 399.907 421.847 399.306 421.847 399.374C421.847 399.442 414.957 399.994 414.938 399.8C414.919 399.606 421.712 397.804 429.541 398.25C431.15 398.399 432.77 398.399 434.379 398.25C437.048 397.914 439.645 397.152 442.073 395.993C443.612 395.453 445.066 394.692 446.389 393.736C449.495 391.11 449.824 386.674 449.96 384.349C450.095 382.024 451.363 370.699 450.472 358.793C450.206 356.423 450.151 354.034 450.308 351.654C450.54 348.641 450.966 348.292 450.589 347.362C449.418 344.456 443.815 344.204 437.195 343.952C428.805 343.555 427.083 345.018 426.338 345.948Z" fill="white" stroke="black" stroke-miterlimit="10"/>
<path id="Vector_94" d="M389.081 412.307H297.98C296.749 412.213 295.577 411.743 294.622 410.96C293.712 410.185 292.231 408.402 292.831 407.143C293.344 406.048 295.386 405.487 297.602 406.32C317.924 405.952 395.342 404.537 403.325 404.605C405.512 404.605 407.999 404.799 408.164 405.574C408.261 406.097 407.274 406.707 406.441 407.211C404.857 408.135 403.13 408.789 401.332 409.148C398.748 409.768 405.203 408.306 394.558 410.96L389.081 412.307Z" fill="#747770" stroke="black" stroke-miterlimit="10"/>
<path id="Vector_95" d="M374.913 407.288C367.5 406.426 302.334 406.388 295.56 407.414C293.722 407.652 291.866 407.72 290.015 407.618C287.112 407.502 286.348 407.124 285.902 406.794C285.322 406.278 284.857 405.643 284.538 404.934C284.219 404.224 284.055 403.455 284.054 402.677C279.132 382.598 274.203 362.513 269.267 342.421C269.145 341.972 269.118 341.502 269.188 341.042C269.258 340.581 269.424 340.14 269.674 339.748C270.006 339.291 270.443 338.921 270.949 338.67C271.454 338.418 272.013 338.293 272.577 338.304L356.614 337.888C357.777 337.93 358.911 338.263 359.914 338.856C361.626 339.903 362.342 341.472 363.388 343.845C364.229 345.754 364.849 347.753 365.236 349.803C369.107 365.478 373.01 381.145 376.945 396.807C377.545 400.188 378.01 402.919 378.378 404.896C378.536 405.458 378.466 406.06 378.184 406.572C377.429 407.618 375.445 407.347 374.913 407.288Z" fill="#9A9A9A" stroke="black" stroke-miterlimit="10"/>
<path id="Vector_96" d="M288.999 340.387C326.74 340.387 340.549 340.455 344.033 340.552C346.23 340.62 347.382 340.775 349.84 340.658C352.085 340.552 354.349 340.862 356.614 340.658C356.972 340.571 357.343 340.556 357.707 340.614C358.071 340.672 358.42 340.802 358.733 340.997C359.304 341.453 359.294 342.102 359.797 343.71C360.034 344.453 360.309 345.184 360.62 345.899C361.288 347.73 367.007 369.585 374.371 399.674" stroke="black" stroke-miterlimit="10"/>
<path id="Vector_97" d="M375.387 402.406L375.9 404.13" stroke="black" stroke-miterlimit="10"/>
<path id="Vector_98" d="M333.224 376.434C333.224 371.223 329.004 366.998 323.798 366.998C318.593 366.998 314.373 371.223 314.373 376.434C314.373 381.645 318.593 385.87 323.798 385.87C329.004 385.87 333.224 381.645 333.224 376.434Z" fill="white" stroke="black" stroke-width="0.5" stroke-miterlimit="10"/>
<path id="Vector_99" d="M278.441 340.387H286.551" stroke="black" stroke-miterlimit="10"/>
<path id="Vector_100" d="M271.842 340.581L274.29 340.387" stroke="black" stroke-miterlimit="10"/>
<path id="Vector_101" d="M324.301 244.327C323.285 241.498 320.373 240.297 319.521 239.696C319.056 239.376 308.934 232.082 289.812 216.107C274.996 203.736 270.729 201.13 267.709 199.638C266.286 198.955 264.938 198.127 263.684 197.168C259.174 193.661 259.29 190.9 254.723 184.855C252.448 181.843 253.416 183.887 246.526 176.398C244.455 174.151 242.868 172.349 240.894 172.523C240.187 172.591 239.142 173.424 237.023 175.081C234.178 177.348 233.355 178.433 233.597 179.111C233.909 179.743 234.419 180.257 235.049 180.574C235.562 180.835 235.794 180.777 235.842 180.903C235.968 181.232 234.555 181.872 233.346 182.773C232.136 183.674 230.23 184.962 229.746 187.142C229.574 188.063 229.641 189.014 229.939 189.903C230.404 191.569 231.023 191.511 233.278 194.746C233.83 195.531 235.02 197.284 236.181 197.769C236.592 197.943 237.025 198.06 237.468 198.118C237.81 198.096 238.152 198.096 238.494 198.118C238.941 198.235 239.345 198.481 239.655 198.825C240.856 199.867 242.152 200.795 243.526 201.595C245.599 202.801 247.912 203.532 250.3 203.736C251.089 203.854 251.884 203.931 252.681 203.969C258.342 204.269 268.425 217.802 272.374 222.869C272.374 222.869 278.635 230.919 289.328 242.002C293.818 246.661 294.893 247.252 299.15 251.689C300.031 252.609 301.086 253.52 302.557 254.857C304.24 256.332 306.123 257.561 308.15 258.509C310.511 259.807 309.989 259.817 317.885 265.29C321.931 268.119 322.56 268.7 323.15 268.4C323.943 268.003 323.721 266.462 323.614 263.314C323.398 258.789 323.54 254.254 324.04 249.752C324.456 246.874 324.882 245.935 324.301 244.327Z" fill="white" stroke="black" stroke-miterlimit="10"/>
<path id="Vector_102" d="M232.455 188.798C233.346 189.573 234.091 190.184 234.604 190.6C237.052 192.538 237.507 192.877 237.962 193.594C238.742 194.966 238.951 196.592 238.542 198.118" stroke="black" stroke-miterlimit="10"/>
<path id="Vector_103" d="M235.407 185.931C236.742 186.889 237.949 188.016 238.997 189.283C239.591 189.873 240.007 190.618 240.197 191.433C240.249 191.991 240.19 192.554 240.024 193.089C239.858 193.625 239.588 194.122 239.229 194.553" stroke="black" stroke-miterlimit="10"/>
<path id="Vector_104" d="M238.997 183.17L240.429 184.972C242.036 186.909 242.307 187.21 242.471 187.723C242.636 188.236 242.839 189.66 241.029 191.918" stroke="black" stroke-miterlimit="10"/>
<path id="Vector_105" d="M240.197 176.34C239.826 177.356 239.251 178.286 238.507 179.07C237.763 179.855 236.866 180.479 235.871 180.903" stroke="black" stroke-miterlimit="10"/>
<path id="Vector_106" d="M247.852 184.846C245.608 183.109 243.489 181.215 241.513 179.179C241.02 178.675 240.545 178.21 240.071 177.658" stroke="black" stroke-miterlimit="10"/>
<g id="Vector_107">
<path d="M255.274 199.58C252.651 199.228 250.191 198.102 248.21 196.345C246.467 194.91 245.179 192.998 244.503 190.842C243.971 188.905 244.145 187.093 242.829 186.289C242.31 186.057 241.752 185.926 241.184 185.902C239.046 185.582 238.494 186.008 237.313 185.689C235.862 185.282 234.488 184.022 234.681 183.296C234.817 182.773 235.717 182.598 237.788 182.327C242.994 181.659 245.636 181.358 247.368 182.085C247.92 182.317 248.336 182.56 251.074 184.991C253.523 187.122 255.497 188.914 256.823 190.135" fill="white"/>
<path d="M255.274 199.58C252.651 199.228 250.191 198.102 248.21 196.345C246.467 194.91 245.179 192.998 244.503 190.842C243.971 188.905 244.145 187.093 242.829 186.289C242.31 186.057 241.752 185.926 241.184 185.902C239.046 185.582 238.494 186.008 237.313 185.689C235.862 185.282 234.488 184.022 234.681 183.296C234.817 182.773 235.717 182.598 237.788 182.327C242.994 181.659 245.636 181.358 247.368 182.085C247.92 182.317 248.336 182.56 251.074 184.991C253.523 187.122 255.497 188.914 256.823 190.135" stroke="black" stroke-miterlimit="10"/>
</g>
</g>
<g id="Layer 5">
<path id="Vector_108" d="M415.122 277.554C416.361 279.395 418.025 279.598 417.938 280.693C417.599 283.599 405.358 285.74 394.974 282.311C390.726 280.897 386.439 278.436 386.613 276.266C386.681 275.462 387.329 275.113 388.084 273.118C388.569 271.904 388.866 270.623 388.964 269.32C389.022 265.629 386.913 264.128 386.874 262.539C386.729 256.571 415.528 247.494 419.602 254.275C422.622 259.342 410.515 270.667 415.122 277.554Z" fill="white" stroke="black" stroke-miterlimit="10"/>
<g id="Vector_109">
<path d="M415.122 277.554C414.464 275.919 413.959 274.226 413.612 272.498C413.002 269.041 412.94 265.511 413.428 262.035C415.16 250.798 427.886 244.52 426.976 236.528C426.705 234.164 421.896 230.386 412.267 222.83C412.267 222.83 400.422 213.521 389.845 211.748C389.166 211.546 388.455 211.479 387.75 211.553C387.046 211.627 386.364 211.839 385.741 212.177C385.119 212.516 384.57 212.974 384.125 213.525C383.68 214.076 383.348 214.71 383.148 215.39C380.729 220.825 381.087 227.277 381.107 227.635C381.213 229.321 381.436 230.541 380.671 231.723C380.032 232.692 379.21 232.963 376.887 234.048C372.939 235.898 370.955 236.838 370.916 237.991C370.878 239.144 372.513 240.132 372.852 240.316C374.274 241.207 375.184 240.742 375.61 241.488C376.036 242.234 375.387 242.689 375.029 245.276C374.947 245.805 374.899 246.339 374.884 246.874C374.944 247.953 375.09 249.025 375.32 250.081C375.436 251.185 375.155 251.195 374.855 253.404C374.647 255.149 374.602 256.91 374.72 258.664C374.797 261.076 374.991 261.483 375.32 261.745C375.92 262.219 376.558 261.919 378.378 262.035C379.31 262.11 380.235 262.256 381.145 262.471C383.761 262.806 386.411 262.757 389.013 262.326C393.242 261.812 395.39 261.522 396.871 260.001C397.617 259.217 398.168 258.268 398.477 257.23" fill="white"/>
<path d="M415.122 277.554C414.464 275.919 413.959 274.226 413.612 272.498C413.002 269.041 412.94 265.511 413.428 262.035C415.16 250.798 427.886 244.52 426.976 236.528C426.705 234.164 421.896 230.386 412.267 222.83C412.267 222.83 400.422 213.521 389.845 211.748C389.166 211.546 388.455 211.479 387.75 211.553C387.046 211.627 386.364 211.839 385.741 212.177C385.119 212.516 384.57 212.974 384.125 213.525C383.68 214.076 383.348 214.71 383.148 215.39C380.729 220.825 381.087 227.277 381.107 227.635C381.213 229.321 381.436 230.541 380.671 231.723C380.032 232.692 379.21 232.963 376.887 234.048C372.939 235.898 370.955 236.838 370.916 237.991C370.878 239.144 372.513 240.132 372.852 240.316C374.274 241.207 375.184 240.742 375.61 241.488C376.036 242.234 375.387 242.689 375.029 245.276C374.947 245.805 374.899 246.339 374.884 246.874C374.944 247.953 375.09 249.025 375.32 250.081C375.436 251.185 375.155 251.195 374.855 253.404C374.647 255.149 374.602 256.91 374.72 258.664C374.797 261.076 374.991 261.483 375.32 261.745C375.92 262.219 376.558 261.919 378.378 262.035C379.31 262.11 380.235 262.256 381.145 262.471C383.761 262.806 386.411 262.757 389.013 262.326C393.242 261.812 395.39 261.522 396.871 260.001C397.617 259.217 398.168 258.268 398.477 257.23" stroke="black" stroke-miterlimit="10"/>
</g>
<path id="Vector_110" d="M384.735 248.628C384.235 248.934 383.698 249.178 383.139 249.354C381.379 249.844 379.511 249.783 377.787 249.18C377.071 248.969 376.377 248.687 375.716 248.337" stroke="black" stroke-miterlimit="10"/>
<path id="Vector_111" d="M404.119 240.587C402.783 240.306 402.029 238.872 400.877 236.712C399.106 233.36 399.445 231.655 398.651 229.592C396.59 224.303 390.513 225.785 386.216 220.224C383.777 217.066 382.219 212.038 383.845 207.631C385.955 201.818 392.68 199.319 394.258 198.796L395.013 198.553C406.77 194.988 422.66 201.46 431.35 212.387C431.35 212.387 443.157 227.199 440.94 258.625C440.602 263.372 441.328 268.148 441.076 272.885C440.816 274.872 441.079 276.892 441.84 278.746C443.524 282.417 446.911 282.95 446.679 284.558C446.447 286.496 441.628 288.356 437.766 287.048C433.905 285.74 432.521 281.904 432.008 280.557C431.302 278.863 431.046 277.014 431.263 275.191C431.379 275.191 430.857 279.347 433.199 282.941C436.305 287.726 441.657 288.065 441.415 289.344C441.134 290.816 433.615 292.25 429.657 288.579C428.51 287.416 427.68 285.979 427.247 284.403C426.175 281.207 425.935 277.789 426.551 274.474C425.205 277.531 425.012 280.973 426.009 284.161C428.157 290.613 435.763 291.979 435.192 294.071C434.902 295.118 432.957 295.04 421.073 295.67C418.689 295.862 416.291 295.532 414.048 294.701C412.722 294.197 405.899 291.601 403.587 285.362C402.619 282.669 403.103 278.843 403.906 271.161C404.632 264.128 405.338 264.05 405.019 260.611C404.632 256.494 403.335 253.375 404.97 251.892C405.987 250.991 406.906 251.815 409.161 250.991C411.928 249.974 413.428 247.698 414.425 246.196C415.712 244.259 416.98 242.321 416.68 239.754C416.467 237.884 415.335 234.91 413.351 234.523C410.061 234.019 407.428 241.285 404.119 240.587Z" fill="black" stroke="black" stroke-miterlimit="10"/>
<path id="Vector_112" d="M406.577 252.202C404.641 252.629 405.445 257.608 402.222 269.272C398.264 283.609 394.48 285.236 392.738 285.45C391.364 285.614 389.835 285.091 389.69 285.527C389.458 286.157 392.313 287.891 394.616 288.918C396.319 289.673 400.974 291.737 404.835 290.855C412.064 289.218 416.225 277.351 415.238 267.973C414.386 259.536 409.161 251.64 406.577 252.202Z" fill="black" stroke="black" stroke-miterlimit="10"/>
<path id="Vector_113" d="M385.597 229.011C386.206 229.214 385.597 233.157 385.597 233.157C385.597 233.157 384.745 235.53 384.213 235.472C383.681 235.414 383.439 233.767 383.71 232.237C384.029 230.454 385.171 228.865 385.597 229.011Z" fill="black" stroke="black" stroke-miterlimit="10"/>
<path id="Vector_114" d="M407.845 235.685L383.594 231.636" stroke="black" stroke-miterlimit="10"/>
<path id="Vector_115" d="M384.363 229.248C384.842 226.456 383.716 223.933 381.848 223.612C379.981 223.291 378.078 225.294 377.6 228.085C377.121 230.877 378.247 233.4 380.115 233.721C381.982 234.042 383.885 232.039 384.363 229.248Z" stroke="black" stroke-width="1.00449" stroke-miterlimit="10"/>
<path id="Vector_116" d="M389.429 223.721C388.247 222.467 386.674 221.654 384.968 221.416C384.457 221.353 383.94 221.353 383.429 221.416" stroke="black" stroke-miterlimit="10"/>
</g>
</g>
</svg>
